<svg width="140" height="37" viewBox="0 0 140 37" fill="none" xmlns="http://www.w3.org/2000/svg">
<path d="M40.9278 17.3074L41.4661 15.5858L39.6852 15.6415C39.5348 15.6415 38.4412 15.6105 37.3803 14.8419C37.4594 14.8496 37.5384 14.8604 37.6191 14.8604C38.7112 14.8604 39.7674 14.2034 40.191 13.2642L40.9573 11.5673C39.9971 11.5797 39.1191 11.4588 39.1191 11.4588C39.1113 11.4572 38.4195 11.3689 37.6191 10.5522C37.0451 9.96641 36.3348 9.65638 35.5653 9.65638C35.2288 9.65638 34.9278 9.71682 34.6688 9.79899C34.7091 9.66109 34.7478 9.52156 34.7697 9.37742C35.0146 7.78896 33.9909 6.57705 33.9909 6.57868L32.6523 4.92202L31.8224 6.86843C31.8193 6.87465 31.6099 7.33033 31.2345 7.55343C31.1212 6.98157 30.8436 6.33846 30.2495 5.72319C29.1295 4.56397 27.7661 4.39194 27.0525 4.39194C26.7221 4.39194 26.4864 4.42761 26.4289 4.43689L24.8127 4.75466C24.9057 4.39357 25.1042 3.76586 25.4672 3.20021L26.3592 1.81169L24.1146 2.0674L23.3995 0.550152L22.0159 1.26306L20.7362 0L19.4595 1.26306L18.0712 0.550152L17.3576 2.0674L15.1147 1.81169L16.0081 3.20021C16.3711 3.76586 16.5697 4.39194 16.6612 4.75304L15.1192 4.44932L15.0666 4.44005C14.989 4.42761 14.7548 4.39194 14.4228 4.39194C13.7093 4.39194 12.3458 4.56551 11.2289 5.72319C10.6333 6.33694 10.3556 6.98157 10.2409 7.55343C9.86862 7.33338 9.66069 6.88393 9.66069 6.88393L8.82928 4.9266L7.46896 6.59418C7.30291 6.80953 6.48241 7.94868 6.70573 9.38058C6.72905 9.52318 6.76625 9.66263 6.8066 9.80061C6.54911 9.71844 6.24814 9.658 5.91159 9.658C5.14218 9.658 4.43177 9.96795 3.85628 10.5538C3.05889 11.3674 2.37017 11.4588 2.37645 11.4588C2.37645 11.4588 1.64891 11.5889 0.522774 11.5687L1.28438 13.2658C1.70791 14.2065 2.76572 14.8621 3.85628 14.8621C3.93849 14.8621 4.01756 14.8511 4.09825 14.8434C3.04034 15.6121 1.94674 15.6431 1.81486 15.6446L0 15.5858L0.549129 17.3059C0.825264 18.1924 1.74815 19.6616 3.51658 19.8196C3.32418 20.6255 2.89761 21.5274 1.96073 21.9164L0.609648 22.4727L1.34642 23.7544C1.76214 24.4456 2.73784 25.2545 4.12765 25.2545C4.42862 25.253 4.71864 25.2235 4.99792 25.1647C5.06929 25.4808 5.15921 25.797 5.26474 26.11C5.67884 27.3405 5.32211 28.199 5.31745 28.2083L4.65042 29.6046L6.13958 29.9967C6.15822 30.0029 6.60801 30.1253 7.17113 30.1253C7.42709 30.1253 7.67056 30.099 7.90019 30.0448C8.07384 30.0045 8.23991 29.9503 8.39962 29.8851C8.59198 30.2307 8.82621 30.5454 9.09923 30.8273C10.0532 31.8053 11.4043 32.3012 13.1168 32.3012H13.123L14.3453 32.2857L11.82 33.3333L13.7373 34.2585C14.4337 34.5979 15.2605 34.9992 16.1012 35.3061L15.8623 35.9601L16.5231 36.2608C16.582 36.2871 17.8525 36.8559 19.9653 36.9767C19.9653 36.9767 20.4756 37 20.7563 37C21.037 37 21.5411 36.9753 21.5411 36.9753C23.64 36.8512 24.901 36.2887 24.96 36.2608L25.6223 35.9586L25.3803 35.3031C26.2459 34.9869 27.1021 34.57 27.7691 34.2446L29.6507 33.3318L27.1331 32.2827L28.3601 32.2981C30.0742 32.2981 31.4269 31.8022 32.3792 30.8228C32.6507 30.5423 32.885 30.2277 33.0789 29.882C33.2387 29.9472 33.4061 30.0014 33.5798 30.0417C33.8079 30.0959 34.0514 30.1223 34.3074 30.1223C34.8611 30.1223 35.3157 29.9999 35.328 29.9967L36.8234 29.6016L36.1718 28.2316C36.1563 28.1959 35.7996 27.3389 36.2138 26.1069C36.3192 25.7923 36.4076 25.4762 36.479 25.1615C36.7598 25.2204 37.0529 25.2514 37.3555 25.2514C39.1252 25.2514 39.9738 24.007 40.1382 23.7374L40.8673 22.4697L39.5162 21.9149C38.5777 21.5258 38.1528 20.6223 37.9619 19.8181C39.7054 19.6693 40.6423 18.2001 40.9278 17.3074ZM16.779 5.3466L16.7605 5.35129L16.776 5.33111L16.779 5.3466Z" fill="white"/>
<path d="M20.7377 5.27075C19.3075 5.27228 18.2358 5.74029 18.0015 6.29044L20.7377 7.36914L23.474 6.29044C23.2413 5.74029 22.1695 5.27228 20.7377 5.27075Z" fill="white"/>
<path d="M20.7655 33.8245H20.7623H20.739H20.7127H20.7111C19.844 33.8307 18.6512 33.6525 18.0757 33.4851L17.3838 35.3556C17.8399 35.5184 19.3849 35.8283 20.739 35.8283C22.0901 35.8283 23.6366 35.5169 24.0911 35.3556L23.4008 33.4851C22.8239 33.654 21.6325 33.8307 20.7655 33.8245Z" fill="white"/>
<path d="M26.001 31.9648C25.486 32.2562 24.3365 32.6932 23.668 32.8962L24.2295 34.4413C25.2641 34.1592 26.1172 33.8292 26.8231 33.4758L25.6581 33.0883L26.001 31.9648Z" fill="white"/>
<path d="M15.4759 31.9648L15.8203 33.0883L14.6538 33.4758C15.358 33.8292 16.2158 34.1592 17.2458 34.4413L17.8073 32.8962C17.1418 32.6932 15.9909 32.2546 15.4759 31.9648Z" fill="white"/>
<path d="M20.7378 3.48217C21.8159 3.48217 22.8738 3.73941 23.6866 4.19203C23.7611 3.94244 23.865 3.64025 24.0061 3.3241L23.6991 3.3613L23.3764 3.39544L23.2398 3.10253L22.8288 2.2347L22.0796 2.62514L21.788 2.77394L21.5553 2.54463L20.7409 1.73877L19.9281 2.54463L19.6954 2.77394L19.4038 2.62514L18.6499 2.2347L18.2435 3.10253L18.104 3.39544L17.7813 3.3613L17.4741 3.3241C17.6153 3.64177 17.7177 3.94244 17.7937 4.19203C18.6081 3.73941 19.6628 3.48217 20.7378 3.48217Z" fill="white"/>
<path d="M37.197 13.5122C37.3367 13.5602 37.4793 13.5819 37.6206 13.5819C38.2301 13.5819 38.8196 13.1883 39.0228 12.7373C39.0228 12.7373 37.9044 12.6691 36.7022 11.4494C36.3192 11.0542 35.9143 10.9365 35.5668 10.9365C35.027 10.9365 34.6221 11.2217 34.6221 11.2217C36.0741 11.9934 36.3702 13.2332 37.197 13.5122Z" fill="white"/>
<path d="M3.85534 13.5819C3.99645 13.5819 4.13918 13.5602 4.27573 13.5122C5.10556 13.2332 5.40339 11.9934 6.85534 11.2217C6.85534 11.2217 6.44884 10.9365 5.91217 10.9365C5.56315 10.9365 5.15828 11.0542 4.77357 11.4494C3.57303 12.6691 2.45459 12.7373 2.45459 12.7373C2.6547 13.1883 3.2457 13.5819 3.85534 13.5819Z" fill="white"/>
<path d="M37.5915 18.5505C37.6163 18.5519 37.638 18.5519 37.6644 18.5519C39.1861 18.5519 39.7027 16.9231 39.7027 16.9231H39.6732C39.394 16.9231 37.1308 16.8581 35.5315 14.8263C34.4783 13.4906 33.6157 12.3158 31.911 11.8539L31.7435 11.8245L31.7063 11.6541C31.6597 11.3937 31.8381 11.1504 32.243 10.8869C34.5946 9.34811 32.9984 7.38607 32.9984 7.38607C32.9984 7.38607 32.3268 8.95598 30.8237 8.95598C30.788 8.95598 30.7492 8.95437 30.712 8.95437C30.5414 8.94512 30.377 8.93887 30.2109 8.90334L29.9333 8.84899C29.9333 8.84899 30.3615 7.6852 29.3283 6.61587C28.5496 5.80849 27.6019 5.67212 27.0543 5.67212C26.7781 5.67212 26.6029 5.70769 26.6029 5.70769C27.1225 6.38646 27.4979 7.51163 26.8977 8.20589C26.3796 8.80251 25.1138 8.83196 25.1138 9.7215C25.1138 10.0981 25.4659 10.5383 26.0988 10.9334C28.0021 12.1314 29.8914 13.7198 30.6763 15.8492C31.6582 18.5055 30.5522 20.2676 28.9731 21.278C28.9731 21.278 29.468 21.7336 30.1862 21.7909C30.332 21.8049 30.4747 21.811 30.6081 21.811C32.1236 21.811 32.9069 21.1012 32.9069 21.1012C32.9069 21.1012 32.7781 22.0822 31.9886 22.9935C31.2611 23.835 30.3056 24.3294 28.849 24.3511C28.849 24.3511 28.8025 25.0267 29.4478 25.611C29.8604 25.9798 30.8144 26.1007 30.8144 26.1007C30.8144 26.1007 29.0289 26.4618 28.832 29.0964C28.7249 30.5236 28.3604 31.0196 28.3604 31.0196H28.393C32.5361 31.0196 32.4291 27.4692 32.4291 27.4692C32.4291 27.4692 32.7176 28.5198 33.8733 28.7942C34.0128 28.8314 34.1618 28.8453 34.3045 28.8453C34.6769 28.8453 34.9994 28.7585 34.9994 28.7585C34.9994 28.7585 34.3945 27.4831 34.9947 25.6993C35.4927 24.2193 35.412 23.1221 35.412 23.1221C35.412 23.1221 35.9704 23.9652 37.3542 23.973H37.3681C38.5206 23.973 39.0231 23.1005 39.0231 23.1005C36.2606 21.9552 36.5336 18.2576 36.5336 18.2576C36.5336 18.2576 36.8919 18.524 37.5915 18.5505ZM36.76 22.4123C35.6369 21.8591 34.9265 20.39 34.7544 19.8599C34.5681 22.7734 33.1442 24.7958 31.4798 26.7423C30.6158 27.7511 30.3149 28.7321 30.3149 28.7321C30.3149 28.7321 30.4808 27.621 31.2285 26.716C32.7813 24.8516 34.2565 22.5317 34.3666 19.8491C34.4426 17.977 33.9601 16.4583 33.2079 15.2077C33.6282 16.511 33.5693 18.1072 32.1406 19.5964C32.1406 19.5964 34.9839 16.1916 31.0083 12.7017C29.4167 11.3736 27.6763 10.5538 26.7798 9.97264C30.0186 11.028 31.5993 9.86565 31.5993 9.86565C30.5646 10.7614 29.226 10.7459 28.396 10.6173C28.621 10.7274 28.8553 10.842 29.1081 10.9768C31.8381 12.4584 34.2921 14.8961 34.7109 18.273V18.2466C35.3469 21.5615 36.76 22.4123 36.76 22.4123Z" fill="white"/>
<path d="M10.6609 26.1007C10.6609 26.1007 11.615 25.9814 12.0276 25.611C12.6712 25.0267 12.6264 24.3511 12.6264 24.3511C11.1683 24.3309 10.2143 23.835 9.48213 22.9951C8.69872 22.0838 8.56845 21.1028 8.56845 21.1028C8.56845 21.1028 9.35172 21.8126 10.8657 21.8126C11.0023 21.8126 11.1434 21.8064 11.2892 21.7924C12.0074 21.7351 12.5038 21.2795 12.5038 21.2795C10.9246 20.269 9.81718 18.5055 10.7975 15.8492C11.584 13.7214 13.4717 12.1314 15.3751 10.9334C16.0079 10.5383 16.36 10.0996 16.36 9.7215C16.36 8.83196 15.0958 8.80251 14.5776 8.20589C13.9775 7.51163 14.3544 6.38493 14.8724 5.70769C14.8724 5.70769 14.7002 5.67212 14.4225 5.67212C13.8766 5.67212 12.9288 5.80849 12.1501 6.61587C11.1139 7.6852 11.5436 8.84899 11.5436 8.84899L11.2659 8.90334C11.1 8.93887 10.934 8.94512 10.7649 8.95437C10.7262 8.95437 10.692 8.95598 10.6548 8.95598C9.14862 8.95598 8.48005 7.3876 8.48005 7.3876C8.48005 7.3876 6.88386 9.34965 9.23388 10.8885C9.63877 11.1519 9.81565 11.3952 9.76911 11.6556L9.73177 11.8261L9.56118 11.8556C7.85956 12.3174 6.99558 13.492 5.94233 14.8279C4.34613 16.8566 2.08605 16.9231 1.80383 16.9231H1.77271C1.77271 16.9231 2.2893 18.5519 3.81099 18.5519C3.83583 18.5519 3.85752 18.5519 3.88388 18.5505C4.58344 18.5256 4.94331 18.2576 4.94331 18.2576C4.94331 18.2576 5.21326 21.9535 2.45372 23.1005C2.45372 23.1005 2.95633 23.973 4.10882 23.973H4.1228C5.50794 23.9652 6.06489 23.1221 6.06489 23.1221C6.06489 23.1221 5.98419 24.2193 6.48061 25.6993C7.08083 27.4831 6.47899 28.7585 6.47899 28.7585C6.47899 28.7585 6.80166 28.8453 7.17237 28.8453C7.31662 28.8453 7.46402 28.8314 7.60209 28.7942C8.75607 28.5198 9.04619 27.4692 9.04619 27.4692C9.04619 27.4692 8.94069 31.0196 13.084 31.0196H13.1133C13.1133 31.0196 12.7504 30.5236 12.6449 29.0964C12.4464 26.4618 10.6609 26.1007 10.6609 26.1007ZM9.9956 26.7423C8.33116 24.7958 6.9087 22.7734 6.72096 19.8599C6.54884 20.3884 5.84146 21.8591 4.71847 22.4123C4.71847 22.4123 6.12996 21.5615 6.76445 18.2466V18.273C7.18484 14.8977 9.63724 12.4584 12.3688 10.9768C12.6186 10.8404 12.8559 10.7258 13.0793 10.6173C12.2494 10.7459 10.9107 10.7614 9.87607 9.86565C9.87607 9.86565 11.4567 11.028 14.694 9.97264C13.7975 10.5538 12.0586 11.3736 10.467 12.7017C6.48983 16.1916 9.3347 19.5964 9.3347 19.5964C7.90457 18.1055 7.84722 16.511 8.26752 15.2077C7.51369 16.4598 7.03278 17.977 7.11033 19.8491C7.2189 22.5317 8.69404 24.8516 10.2437 26.716C10.993 27.6195 11.1621 28.7321 11.1621 28.7321C11.1621 28.7321 10.8579 27.7511 9.9956 26.7423Z" fill="white"/>
<path d="M17.6746 13.1202C17.7428 13.1929 17.8095 13.2721 17.8732 13.351C17.8887 13.3697 17.9026 13.3867 17.9181 13.4085C17.9771 13.4874 18.0376 13.5712 18.095 13.6564C18.1074 13.6734 18.1199 13.6936 18.1337 13.7136C18.2036 13.8191 18.2688 13.9276 18.3338 14.0392C18.931 15.0697 19.8882 15.685 20.7366 15.6865C21.5867 15.685 22.5407 15.0697 23.141 14.0392C23.2077 13.9245 23.2744 13.8129 23.3441 13.7091C23.355 13.6936 23.3659 13.6796 23.3751 13.6642C23.4341 13.5758 23.4962 13.489 23.5614 13.4053C23.5753 13.3867 23.5877 13.3712 23.6001 13.3557C23.6668 13.2736 23.735 13.193 23.8049 13.1186C23.8172 13.1062 23.8265 13.0954 23.8374 13.0861C24.1414 12.7746 24.5044 12.5374 24.979 12.4058L24.7681 12.2834H24.7557L23.9149 11.7952L23.051 11.3008L20.7428 12.5561L20.7366 12.5514L20.7319 12.5561L18.4222 11.3008L17.5599 11.7936L16.7176 12.2817H16.7082L16.4941 12.4042C16.9703 12.5359 17.3318 12.7699 17.6374 13.0814C17.6512 13.0938 17.6606 13.1078 17.6746 13.1202ZM19.8028 13.0194H20.78H21.7557V13.6889C21.5262 13.4085 21.0795 13.4658 21.0795 13.4658V14.4313C21.0795 14.4313 21.0965 14.9055 21.2624 15.1115H20.78H20.2961C20.4651 14.907 20.4807 14.4313 20.4807 14.4313V13.4658C20.4807 13.4658 20.0355 13.4085 19.8028 13.6889V13.0194Z" fill="white"/>
<path d="M20.5379 11.7206V7.80134L18.0405 6.95508L18.6997 10.7536L20.5379 11.7206ZM20.0012 8.76372V9.39288L19.8802 9.33707C19.874 9.33244 19.6972 9.29213 19.3869 9.04724C18.8751 8.65057 18.8658 8.2848 18.8658 8.2848L20.0012 8.76372Z" fill="white"/>
<path d="M22.7782 10.7536L23.4343 6.95508L20.9385 7.80134V11.7206L22.7782 10.7536ZM21.4752 8.76372L22.6106 8.28635C22.6106 8.28635 22.6014 8.65211 22.0879 9.04878C21.7792 9.29367 21.6008 9.33391 21.5946 9.33861L21.4736 9.39434V8.76372H21.4752Z" fill="white"/>
<path d="M17.0058 20.8068C17.2494 20.8951 17.5441 20.9137 17.6945 20.9137C17.7008 20.8951 17.7085 20.8718 17.7163 20.844C17.7302 20.799 17.7427 20.7556 17.752 20.706C17.7939 20.4892 17.8094 20.2427 17.8125 20.0846C17.71 20.021 17.5658 19.9079 17.4852 19.739C17.3922 19.5437 17.2603 19.4539 17.0663 19.4539C16.8151 19.4539 16.5452 19.6042 16.4303 19.6755C16.3389 20.2163 16.7375 20.7076 17.0058 20.8068Z" fill="white"/>
<path d="M22.5292 18.7268C22.0654 19.2305 21.158 20.1077 21.113 20.1526L21.0587 20.2084L18.1906 20.1634C18.189 20.4471 18.1425 20.6888 18.0975 20.8655C18.0898 20.8949 18.082 20.9259 18.0742 20.9569L21.4868 21.5691C21.842 21.3211 22.8193 20.6082 23.1978 20.3293C22.9216 19.9264 22.8952 19.449 22.9573 19.1128C22.7774 18.9965 22.6393 18.8663 22.5292 18.7268Z" fill="white"/>
<path d="M22.9186 15.2806C22.2577 15.9361 21.6234 16.1778 21.0572 16.2336C20.9548 16.2445 20.8509 16.2506 20.7454 16.2506H20.7376H20.7314C20.626 16.2506 20.5205 16.2445 20.418 16.2336C20.3188 16.2243 20.2149 16.2088 20.111 16.1856C20.0737 16.3328 20.0272 16.6412 20.1606 16.9326C20.28 17.1976 20.5236 17.3944 20.8788 17.5246L20.9982 17.571L20.9998 17.6997C20.9998 17.7384 21.0277 18.5722 21.9383 18.8031C22.0871 18.6497 22.2221 18.5118 22.3215 18.397C22.1352 17.96 22.2329 17.5137 22.5029 17.2952C22.4905 17.3416 22.3726 18.4358 23.2506 18.8418L23.3948 18.9101L23.3514 19.0634C23.3373 19.1099 23.0442 20.1684 24.1068 20.562L24.2945 20.6333L24.2107 20.8162C24.1921 20.8565 23.7749 21.8174 24.7568 22.3628H26.8865V20.6736C26.1296 20.5806 25.8084 19.9732 25.7262 19.5423C25.3742 19.4819 25.1011 19.33 24.9149 19.082C24.4681 18.4946 24.8529 17.9569 24.8576 17.9275C24.856 17.9322 24.8576 18.5055 25.2112 18.8589C25.3865 19.0293 25.5944 19.1611 25.9092 19.1906L26.0643 19.2045L26.0784 19.3626C26.0814 19.3966 26.1668 20.1715 26.888 20.2939L26.8865 16.8442C26.8865 16.3096 27.0432 15.7718 27.2309 15.2759H22.9186V15.2806Z" fill="white"/>
<path d="M17.1877 16.8608L17.1304 19.0584L17.38 19.0956L17.9912 16.9879L17.681 16.3401L17.1877 16.8608Z" fill="white"/>
<path d="M23.9257 26.939C23.9443 26.939 23.966 26.9421 23.9862 26.9468C24.3662 27.0553 24.4625 28.4252 25.1294 28.5476C25.1946 28.5616 25.2551 28.5647 25.3078 28.5647C25.5002 28.5647 25.615 28.4825 25.739 28.3369C25.739 28.3369 25.404 27.8099 25.1527 27.4551C24.8192 26.9902 24.5602 26.4275 23.9397 26.4275C23.9257 26.4275 23.9071 26.4275 23.8917 26.4292C23.6869 26.44 23.5612 26.5391 23.5612 26.5391C23.3099 26.3811 23.0757 26.3268 22.8631 26.3268C22.4739 26.3268 22.1714 26.5051 22.0208 26.5051H22.0147L20.6279 26.3688C20.4107 26.3486 20.2401 26.1301 20.1781 26.0449C20.1626 26.0215 20.1548 26.0076 20.1548 26.0076C20.1548 25.9704 20.1548 25.9317 20.1517 25.8976C20.1052 24.7648 19.2273 24.2797 18.9154 24.2719C18.9154 24.2719 18.9526 24.0565 18.8674 23.9744L18.5618 24.3447L17.5581 23.8411L18.2732 24.6764L17.6667 25.3567C17.5907 25.4343 17.6 25.5397 17.6311 25.583L17.8932 25.8139L18.2252 25.6124C18.2422 25.6001 18.2717 25.5969 18.3089 25.5969C18.4004 25.5969 18.5385 25.6201 18.6626 25.6201C18.7975 25.6201 18.9154 25.5907 18.9294 25.4636C18.8875 25.8836 18.4982 26.6135 18.7541 27.1869L18.9434 27.6194L17.7179 27.4426L17.144 28.4113C16.9672 28.7336 16.9393 29.0823 17.1099 29.2714L17.3238 29.5395C17.3238 29.5395 17.6248 29.2202 17.6931 29.011L17.5953 28.9041C17.5131 28.8142 17.5178 28.7336 17.5675 28.636L17.9273 28.0393L19.3745 28.3803L19.4505 28.2501C19.5483 28.0874 19.6895 28.0377 19.8446 28.0377C19.9082 28.0377 19.9733 28.0455 20.0416 28.0564C20.31 28.1091 20.7521 28.1803 21.1942 28.1803C21.6796 28.1803 22.1605 28.0936 22.4164 27.8069C22.9407 28.5833 24.0033 28.7073 23.9195 29.1008L23.6403 30.4306C23.8249 30.4228 24.0033 30.4104 24.1723 30.3871L24.4376 29.0032C24.4671 28.8529 24.495 28.6498 24.495 28.6498C24.3926 28.5461 24.1444 28.326 24.0049 28.0595C23.8171 27.6999 23.9195 27.5124 23.7442 27.0443C23.7504 27.0475 23.8032 26.939 23.9257 26.939ZM18.5122 24.9956C18.4408 24.9941 18.3896 24.9336 18.3926 24.8624C18.3989 24.7942 18.4563 24.7399 18.526 24.7461C18.5974 24.7493 18.6486 24.8112 18.6456 24.8795C18.6393 24.9476 18.5804 25.0003 18.5122 24.9956Z" fill="white"/>
<path d="M16.5362 28.1974C16.5362 28.1974 17.0154 28.0006 17.0588 27.8595L16.9953 27.6999C16.9503 27.5961 16.9565 27.4829 17.0433 27.421L17.5614 27.0629L18.427 27.2288C18.427 27.2288 18.2703 27.0335 18.2859 26.7716L17.4607 26.5964L16.6819 27.0707C16.3484 27.3202 16.3236 27.7277 16.4337 27.9694L16.5362 28.1974Z" fill="white"/>
<path d="M22.6538 30.4508C22.8089 30.4446 22.9795 30.4415 23.1673 30.4415C23.1673 30.4415 23.6125 29.1413 23.6372 29.0995C23.3875 28.9894 22.8694 28.715 22.6693 28.5896C22.8012 28.7864 23.1223 29.0126 23.0587 29.1862L22.6538 30.4508Z" fill="white"/>
<path d="M26.891 22.7395H14.5854V27.3639C14.5854 29.2546 15.9552 30.4387 17.9763 30.4387C19.6656 30.4387 20.1107 30.5036 20.739 31.1267C21.1718 30.6959 21.5302 30.5346 22.2654 30.4742L22.2824 30.403L22.6702 29.205C22.6485 29.1787 22.0141 28.4581 22.0141 28.4581C21.7628 28.5418 21.5519 28.5557 21.1967 28.5557C20.8321 28.5557 20.4211 28.5138 19.9758 28.4302C19.9308 28.4194 19.889 28.4162 19.847 28.4162C19.7927 28.4162 19.7881 28.4209 19.7742 28.4472L19.6966 28.5742L19.5555 28.8067L19.2902 28.7463L18.1098 28.4689L17.9484 28.7355L17.9732 28.7633L18.1175 28.9214L18.0539 29.1275C17.967 29.3972 17.6847 29.7118 17.5994 29.7986L17.3046 30.1148L17.0364 29.7754L16.8347 29.5228C16.6221 29.2856 16.5726 28.9214 16.692 28.5403C16.6888 28.5433 16.6841 28.5448 16.6796 28.5448L16.3461 28.6828L16.1955 28.3573L16.0901 28.1265C15.9087 27.7204 15.9753 27.1269 16.464 26.7688L17.4149 26.2326L18.3192 26.4109C18.3409 26.324 18.3734 26.0141 18.3998 25.9351C18.3828 25.9336 18.3658 25.9289 18.3486 25.9289L17.8275 26.1226L17.3248 25.7755C17.3248 25.7755 17.1278 25.5863 17.3062 25.3973L17.7933 24.6613L16.5601 23.1145L18.4556 23.8926L18.5814 23.736L18.8372 23.4307L19.1273 23.7066C19.2095 23.7856 19.2561 23.8832 19.2793 23.9809C19.802 24.1839 20.7374 24.7837 20.8196 25.7584L20.5265 25.8762V25.884C20.5932 25.963 20.649 25.9956 20.666 25.9986L22.0187 26.1319C22.0528 26.1257 22.0963 26.1102 22.1444 26.0963C22.3119 26.039 22.5648 25.9568 22.8641 25.9568C23.1077 25.9568 23.3433 26.0125 23.5698 26.118C23.6536 26.087 23.7561 26.0637 23.874 26.056L23.939 26.0545C24.6635 26.0545 25.0233 26.5952 25.3119 27.0262C25.3599 27.1004 25.408 27.1718 25.4577 27.2415C25.7105 27.598 26.0408 28.1202 26.0549 28.142L26.2038 28.3744L26.0207 28.5867C25.8796 28.7494 25.6686 28.9401 25.3056 28.9401C25.2312 28.9401 25.149 28.9323 25.0606 28.9152C24.9831 28.9013 24.9133 28.878 24.845 28.8501C24.8341 28.9214 24.8202 29.0067 24.8061 29.0795L24.5688 30.3162C25.9882 29.9675 26.8894 28.8966 26.8894 27.3655L26.891 22.7395Z" fill="#FFDD2D"/>
<path d="M14.5858 22.3674H24.155C23.6772 21.8746 23.6835 21.2501 23.806 20.844C23.6664 20.7773 23.5516 20.6967 23.4493 20.61C23.0754 20.8858 21.9337 21.7165 21.636 21.9241L21.5724 21.9676L17.8169 21.2888H17.7409C17.651 21.2888 17.5191 21.2856 17.3748 21.2686C17.3345 21.4375 17.1888 21.5538 17.0212 21.5538C17.0025 21.5538 16.9808 21.5522 16.9607 21.5475C16.8629 21.5305 16.7777 21.4809 16.7203 21.3988C16.6614 21.3182 16.6381 21.2221 16.6551 21.123L16.6691 21.0423C16.2813 20.7696 15.9246 20.1605 16.0827 19.5189L16.0982 19.4508L16.1526 19.412C16.1603 19.4058 16.2254 19.3624 16.3216 19.3066L16.0486 19.2648C15.9462 19.2462 15.878 19.1516 15.8936 19.051C15.9106 18.9487 16.0067 18.8757 16.1076 18.8959L16.7575 18.9982L16.8165 16.7108L17.7844 15.688L18.3878 16.9573L17.7502 19.1579L18.3243 19.2477C18.425 19.2632 18.4948 19.3577 18.4794 19.4616C18.4638 19.553 18.3863 19.6166 18.2947 19.6166C18.2854 19.6166 18.2746 19.6166 18.2652 19.6151L17.7983 19.5391C17.8046 19.553 17.8138 19.5607 17.8201 19.5762C17.8697 19.6786 17.9799 19.753 18.0449 19.7839L20.9085 19.8289C21.0294 19.7111 21.3304 19.4166 21.6391 19.1051C20.9349 18.8386 20.6789 18.2311 20.6354 17.8281C20.2415 17.6608 19.97 17.4098 19.8196 17.0827C19.6365 16.6783 19.7016 16.2738 19.7497 16.077C19.3681 15.9375 18.9664 15.6834 18.5569 15.2773H14.2446C14.4293 15.7731 14.5858 16.311 14.5858 16.8457V22.3674Z" fill="#FFDD2D"/>
<path d="M18.5273 24.7461C18.4574 24.7399 18.3985 24.794 18.3938 24.8623C18.3892 24.9335 18.4419 24.9939 18.5133 24.9955C18.5815 25.0017 18.642 24.949 18.6482 24.8793C18.6482 24.8111 18.5986 24.7476 18.5273 24.7461Z" fill="black"/>
<path d="M26.8744 33.1316L26.1655 32.8604L26.361 32.1289L26.5766 31.3308C26.5766 31.3308 25.3201 32.0112 23.5502 32.5227C23.0477 32.6667 22.6676 32.7318 22.6676 32.7318V33.2742C22.6676 33.2742 21.7214 33.4385 20.7643 33.4385H20.7534H20.7395H20.7209H20.71C19.753 33.4385 18.8067 33.2742 18.8067 33.2742V32.7318C18.8067 32.7318 18.425 32.6667 17.9241 32.5227C16.1541 32.0112 14.8993 31.3308 14.8993 31.3308L15.1117 32.1289L15.3118 32.8604L14.6014 33.1316L13.8135 33.426C14.7178 33.8615 15.9695 34.497 17.116 34.81L16.846 35.5477C16.846 35.5477 18.2995 36.2094 20.7209 36.2157V36.2172H20.7287H20.7395H20.7488H20.755V36.2157C23.1795 36.2094 24.6314 35.5477 24.6314 35.5477L24.3599 34.81C25.5062 34.497 26.7612 33.8615 27.6608 33.426L26.8744 33.1316ZM14.6542 33.4757L15.8206 33.0883L15.4763 31.9647C15.9897 32.256 17.1423 32.693 17.8092 32.8961L17.2462 34.4411C16.2162 34.1576 15.3584 33.8275 14.6542 33.4757ZM20.7395 35.8282C19.3853 35.8282 17.8387 35.5167 17.3843 35.3556L18.076 33.485C18.65 33.6524 19.8444 33.8305 20.7115 33.8243H20.7131H20.7395H20.7627H20.7659C21.633 33.8305 22.8242 33.6524 23.4013 33.485L24.0915 35.3556C23.6371 35.5182 22.0921 35.8282 20.7395 35.8282ZM24.2296 34.4411L23.6681 32.8961C24.3366 32.693 25.486 32.256 26.0011 31.9647L25.6583 33.0883L26.8232 33.4757C26.1174 33.8275 25.2642 34.1576 24.2296 34.4411Z" fill="black"/>
<path d="M20.7381 3.93453C22.1807 3.93453 23.3347 4.41191 23.9723 4.9218C23.9723 4.9218 24.1615 3.78267 24.8084 2.77695L23.6465 2.90863L23.0385 1.61774L21.8705 2.21905L20.7381 1.1001L19.6088 2.21905L18.4393 1.61774L17.8328 2.90863L16.6709 2.77695C17.3177 3.78267 17.507 4.9218 17.507 4.9218C18.146 4.41191 19.297 3.93453 20.7381 3.93453ZM17.7799 3.36114L18.1026 3.39528L18.2423 3.10238L18.6486 2.23454L19.4025 2.62346L19.6942 2.77226L19.9269 2.54294L20.7396 1.73708L21.554 2.54294L21.7867 2.77226L22.0783 2.62346L22.8276 2.23454L23.2386 3.10238L23.3751 3.39528L23.6977 3.36114L24.0049 3.32394C23.8637 3.64172 23.7598 3.94228 23.6852 4.19187C22.8725 3.73936 21.8146 3.48202 20.7366 3.48202C19.6632 3.48202 18.6067 3.73936 17.7908 4.19187C17.7149 3.94228 17.6125 3.64009 17.4713 3.32394L17.7799 3.36114Z" fill="black"/>
<path d="M37.6626 19.0493C39.5288 19.0493 40.1523 17.1525 40.1787 17.0719L40.3865 16.4039L39.6869 16.4256H39.6839C39.4373 16.4256 37.3788 16.3713 35.9192 14.5179L35.7811 14.3459C34.8271 13.134 33.9228 11.9825 32.3064 11.4571C32.353 11.4154 32.4197 11.3626 32.5112 11.3037C33.369 10.7396 33.8685 10.0546 33.9941 9.25964C34.1771 8.06323 33.414 7.11012 33.3799 7.07139L32.8602 6.42982L32.5361 7.19074C32.5144 7.23874 31.9683 8.45689 30.8204 8.45689H30.7351C30.656 8.45219 30.5815 8.44911 30.5071 8.44286C30.5475 7.89896 30.4481 7.05743 29.685 6.26859C28.7682 5.31861 27.6421 5.17603 27.0527 5.17603C26.7377 5.17603 26.5283 5.21476 26.5066 5.21792L25.7218 5.37283L26.2057 6.00982C26.5858 6.50107 26.9301 7.40772 26.5221 7.88193C26.3918 8.03224 26.1235 8.15465 25.866 8.27706C25.337 8.52033 24.6157 8.85819 24.6157 9.7199C24.6157 10.2778 25.0485 10.8605 25.8334 11.3564C28.1571 12.8163 29.5903 14.3397 30.2093 16.0211C31.1664 18.6077 29.9176 20.083 28.7046 20.8594L28.1601 21.2096L28.6364 21.6466C28.7 21.7025 29.2833 22.2154 30.1441 22.2899C30.307 22.3007 30.4636 22.3099 30.6095 22.3099C31.1617 22.3099 31.6317 22.2232 32.0133 22.1069C31.9078 22.2913 31.779 22.4789 31.6162 22.668C30.9229 23.4706 30.0697 23.8365 28.8427 23.8551L28.3866 23.8628L28.3509 24.32C28.3463 24.4114 28.3122 25.2591 29.1157 25.9798C29.2383 26.0912 29.3871 26.1828 29.5423 26.2587C28.9978 26.7485 28.4439 27.6008 28.3371 29.0622C28.2471 30.2818 27.9554 30.7328 27.9523 30.7374L27.4482 31.506L28.3588 31.5185C29.8634 31.5185 31.0159 31.1032 31.8147 30.2818C32.2863 29.7952 32.5562 29.2466 32.716 28.76C32.9782 28.9831 33.3164 29.1784 33.7567 29.2822C33.9243 29.321 34.1074 29.3426 34.3044 29.3426C34.7295 29.3426 35.0847 29.2527 35.125 29.2435L35.7066 29.0885L35.4492 28.546C35.4305 28.5027 34.9451 27.4148 35.4677 25.8619C35.6927 25.1909 35.8074 24.5896 35.8633 24.1216C36.2294 24.3122 36.7196 24.4703 37.354 24.4718C38.7935 24.4718 39.4279 23.3979 39.4574 23.3529L39.7413 22.8601L39.2154 22.6432C37.4998 21.9318 37.1198 20.0209 37.0438 18.9858C37.1989 19.0152 37.3757 19.0431 37.5758 19.0493H37.6626ZM39.023 23.1003C39.023 23.1003 38.5204 23.9728 37.3679 23.9728H37.354C35.9703 23.9651 35.4119 23.122 35.4119 23.122C35.4119 23.122 35.4926 24.2193 34.9931 25.6992C34.3928 27.483 34.9977 28.7585 34.9977 28.7585C34.9977 28.7585 34.6751 28.8452 34.3029 28.8452C34.1601 28.8452 34.0112 28.8313 33.8716 28.794C32.716 28.5198 32.4275 27.469 32.4275 27.469C32.4275 27.469 32.5345 31.0195 28.3913 31.0195H28.3588C28.3588 31.0195 28.7233 30.5235 28.8318 29.0962C29.0288 26.4617 30.8143 26.1007 30.8143 26.1007C30.8143 26.1007 29.8617 25.9813 29.4492 25.6109C28.8038 25.0266 28.8488 24.3509 28.8488 24.3509C30.307 24.3308 31.261 23.8349 31.9884 22.9934C32.7765 22.0821 32.9068 21.1012 32.9068 21.1012C32.9068 21.1012 32.1234 21.811 30.608 21.811C30.4746 21.811 30.3318 21.8047 30.186 21.7908C29.4693 21.7335 28.973 21.2778 28.973 21.2778C30.5505 20.2674 31.658 18.5038 30.6762 15.8475C29.8897 13.7198 28.0004 12.1298 26.0987 10.9318C25.4658 10.5366 25.1136 10.0981 25.1136 9.7199C25.1136 8.83036 26.3794 8.80246 26.8991 8.20421C27.4978 7.50995 27.1224 6.38334 26.6028 5.7061C26.6028 5.7061 26.7781 5.67043 27.0541 5.67043C27.6017 5.67043 28.5495 5.80832 29.3282 6.61419C30.3629 7.68351 29.9331 8.8474 29.9331 8.8474L30.2108 8.90166C30.3768 8.93728 30.5413 8.94352 30.7119 8.95123C30.749 8.95123 30.7863 8.95277 30.8235 8.95277C32.3266 8.95277 32.9983 7.38285 32.9983 7.38285C32.9983 7.38285 34.5961 9.34643 32.2444 10.8837C31.8395 11.1472 31.6611 11.3905 31.7077 11.6508L31.745 11.8213L31.9124 11.8508C33.6172 12.3126 34.4797 13.4874 35.5329 14.8231C37.1322 16.8549 39.3954 16.92 39.6745 16.92H39.7041C39.7041 16.92 39.1875 18.5487 37.6658 18.5487C37.6409 18.5487 37.6192 18.5487 37.5929 18.5473C36.8933 18.5224 36.535 18.2543 36.535 18.2543C36.535 18.2543 36.2604 21.9535 39.023 23.1003Z" fill="black"/>
<path d="M34.3852 11.6619C35.0816 12.0322 35.4865 12.5282 35.8417 12.9682C36.1907 13.3975 36.5227 13.8113 37.0406 13.9833C37.2253 14.0469 37.4207 14.0764 37.6193 14.0764C38.3979 14.0764 39.1798 13.6005 39.476 12.9419L39.7739 12.2817L39.0526 12.2383C39.0184 12.2368 38.0909 12.1531 37.0578 11.0977C36.6328 10.6654 36.1193 10.4375 35.5655 10.4375C34.8893 10.4375 34.3882 10.7754 34.3323 10.8095L33.6685 11.276L34.3852 11.6619ZM35.5671 10.9366C35.9145 10.9366 36.3194 11.0543 36.7026 11.4495C37.9046 12.6692 39.0231 12.7374 39.0231 12.7374C38.8199 13.1868 38.2305 13.582 37.6208 13.582C37.4797 13.582 37.3385 13.5603 37.1974 13.5123C36.3706 13.2333 36.0743 11.9935 34.6209 11.2217C34.6209 11.2217 35.0274 10.9366 35.5671 10.9366Z" fill="black"/>
<path d="M34.7105 18.2465V18.2714C34.2917 14.8961 31.8377 12.4583 29.1076 10.9752C28.8548 10.8404 28.6221 10.7257 28.3957 10.6157C29.2271 10.7443 30.5657 10.7598 31.5988 9.86401C31.5988 9.86401 30.0182 11.0264 26.7793 9.971C27.676 10.5521 29.4179 11.372 31.0078 12.7001C34.9835 16.19 32.1386 19.5948 32.1386 19.5948C33.5673 18.1056 33.6262 16.5094 33.2059 15.206C33.9582 16.4566 34.439 17.9753 34.3645 19.8475C34.2545 22.53 32.7793 24.85 31.2265 26.7144C30.4804 27.6194 30.313 28.7305 30.313 28.7305C30.313 28.7305 30.6138 27.7496 31.4778 26.7406C33.1422 24.7943 34.5646 22.7718 34.7508 19.8583C34.923 20.3868 35.6319 21.8575 36.7565 22.4107C36.7595 22.4123 35.3464 21.5615 34.7105 18.2465Z" fill="black"/>
<path d="M13.5233 30.7359C13.5217 30.7313 13.2332 30.2803 13.1402 29.0606C13.0317 27.5992 12.4793 26.7468 11.9333 26.2571C12.0916 26.1827 12.2373 26.0913 12.3599 25.9782C13.1619 25.2575 13.1277 24.4099 13.123 24.3185L13.0921 23.8613L12.6329 23.8535C11.4091 23.8333 10.5543 23.4676 9.86095 22.6664C9.69964 22.4774 9.56938 22.2898 9.46388 22.1054C9.84539 22.2216 10.3123 22.3085 10.8661 22.3085C11.0151 22.3085 11.1686 22.2991 11.3315 22.2883C12.1923 22.2139 12.7757 21.7024 12.8407 21.6452L13.3169 21.2082L12.7725 20.8578C11.5548 20.0799 10.3108 18.6045 11.2663 16.0196C11.8852 14.3381 13.3169 12.8147 15.6437 11.3548C16.4287 10.8589 16.8583 10.2763 16.8583 9.71836C16.8583 8.85672 16.1386 8.51733 15.6096 8.27552C15.3521 8.15311 15.0838 8.0307 14.9535 7.88039C14.544 7.40768 14.8898 6.49959 15.2684 6.00825L15.7554 5.37136L14.9674 5.21635C14.9442 5.21329 14.7379 5.17456 14.4215 5.17456C13.8319 5.17456 12.7089 5.31714 11.7906 6.26712C11.0259 7.05749 10.9251 7.89896 10.9639 8.44132C10.8894 8.44757 10.815 8.45073 10.7374 8.45527H10.6536C9.50267 8.45527 8.95824 7.23727 8.93654 7.18917L8.61222 6.42825L8.08795 7.06982C8.05851 7.10866 7.29226 8.06323 7.47838 9.2581C7.60246 10.0531 8.10191 10.738 8.95969 11.3022C9.05277 11.3611 9.11794 11.4137 9.16448 11.4557C7.54975 11.9809 6.64693 13.134 5.69292 14.3458L5.55486 14.5179C4.09683 16.3713 2.03371 16.4257 1.78708 16.4257L1.08447 16.404L1.29847 17.0718C1.3233 17.1524 1.94532 19.0493 3.81288 19.0493L3.9029 19.0463C4.09987 19.0401 4.27676 19.0137 4.435 18.9827C4.35735 20.0163 3.97731 21.9272 2.26017 22.6401L1.73588 22.8571L2.01983 23.3499C2.0477 23.3948 2.68371 24.4688 4.12622 24.4688C4.75604 24.4672 5.24617 24.3091 5.61385 24.1185C5.66971 24.5865 5.78446 25.1878 6.0094 25.8588C6.53218 27.4117 6.04509 28.4996 6.02643 28.543L5.76895 29.0855L6.35224 29.2404C6.39097 29.2497 6.74932 29.3395 7.17275 29.3395C7.37133 29.3395 7.55441 29.3179 7.71886 29.2791C8.16094 29.1753 8.50212 28.9801 8.76112 28.7569C8.91936 29.2434 9.19085 29.7921 9.66092 30.2787C10.4612 31.1 11.6122 31.5154 13.1168 31.5154L14.029 31.503L13.5233 30.7359ZM13.0827 31.0195C8.93953 31.0195 9.0451 27.469 9.0451 27.469C9.0451 27.469 8.75659 28.5198 7.60093 28.7941C7.46287 28.8313 7.31548 28.8453 7.17122 28.8453C6.79899 28.8453 6.47784 28.7584 6.47784 28.7584C6.47784 28.7584 7.07968 27.483 6.47936 25.6993C5.98305 24.2192 6.06374 23.1221 6.06374 23.1221C6.06374 23.1221 5.50681 23.9651 4.12167 23.9728H4.10767C2.95518 23.9728 2.45258 23.1003 2.45258 23.1003C5.21364 21.9551 4.94216 18.2574 4.94216 18.2574C4.94216 18.2574 4.58392 18.524 3.88273 18.5503C3.8579 18.5519 3.83468 18.5519 3.80984 18.5519C2.28653 18.5519 1.77157 16.9231 1.77157 16.9231H1.80258C2.08339 16.9231 4.34347 16.858 5.9427 14.8263C6.99595 13.4904 7.85993 12.3172 9.56155 11.854L9.73215 11.8245L9.76948 11.654C9.81602 11.3936 9.63914 11.1503 9.23433 10.8869C6.88272 9.34798 8.48043 7.38597 8.48043 7.38597C8.48043 7.38597 9.14899 8.95439 10.6552 8.95439C10.6924 8.95439 10.7266 8.95277 10.7653 8.95277C10.9343 8.94344 11.1019 8.93728 11.2663 8.90166L11.544 8.8474C11.544 8.8474 11.1143 7.68357 12.1505 6.61425C12.9292 5.80686 13.8769 5.67049 14.4229 5.67049C14.7006 5.67049 14.8728 5.70607 14.8728 5.70607C14.3548 6.38484 13.9794 7.51001 14.578 8.20429C15.0962 8.80092 16.3604 8.83036 16.3604 9.7199C16.3604 10.0965 16.0083 10.5367 15.3755 10.9318C13.472 12.1298 11.5828 13.7198 10.7979 15.8476C9.81756 18.5039 10.9235 20.2658 12.5042 21.2779C12.5042 21.2779 12.0078 21.7334 11.2896 21.7908C11.1438 21.8048 11.0026 21.811 10.8661 21.811C9.35217 21.811 8.56883 21.1011 8.56883 21.1011C8.56883 21.1011 8.69909 22.0822 9.48251 22.9934C10.2146 23.8349 11.1686 24.3308 12.6268 24.351C12.6268 24.351 12.6733 25.0267 12.028 25.6109C11.6139 25.9797 10.6613 26.1006 10.6613 26.1006C10.6613 26.1006 12.4483 26.4617 12.6438 29.0963C12.7508 30.5235 13.1122 31.0195 13.1122 31.0195H13.0827Z" fill="black"/>
<path d="M3.85512 14.0782C4.05523 14.0782 4.25067 14.0486 4.43517 13.9851C4.95642 13.8131 5.28679 13.3993 5.63581 12.97C5.99264 12.5299 6.39438 12.034 7.0908 11.6636L7.80751 11.2793L7.14199 10.8128C7.08614 10.7772 6.58668 10.4409 5.91195 10.4409C5.35664 10.4409 4.84167 10.6672 4.41814 11.101C3.38506 12.1549 2.45903 12.24 2.42487 12.2417L1.70361 12.2834L1.99992 12.9452C2.29765 13.6007 3.07791 14.0782 3.85512 14.0782ZM4.77335 11.4513C5.15805 11.056 5.56293 10.9383 5.91195 10.9383C6.44861 10.9383 6.85501 11.2234 6.85501 11.2234C5.40316 11.9968 5.10534 13.2351 4.27541 13.514C4.13896 13.562 3.99623 13.5838 3.85512 13.5838C3.24547 13.5838 2.656 13.1901 2.45437 12.7392C2.45437 12.7376 3.57118 12.6693 4.77335 11.4513Z" fill="black"/>
<path d="M7.11077 19.8492C7.03323 17.9771 7.51413 16.4583 8.26794 15.2077C7.84756 16.511 7.90498 18.1072 9.33519 19.5966C9.33519 19.5966 6.49028 16.1918 10.4675 12.7018C12.0591 11.3736 13.7995 10.5538 14.6945 9.97264C11.4572 11.028 9.87648 9.86572 9.87648 9.86572C10.9095 10.7615 12.2483 10.746 13.0798 10.6159C12.8548 10.7258 12.619 10.8405 12.3692 10.9753C9.63612 12.4584 7.18366 14.8962 6.76327 18.2715V18.2452C6.12889 21.5601 4.71729 22.4109 4.71729 22.4109C5.84038 21.8576 6.54776 20.3884 6.71988 19.8585C6.90763 22.772 8.32997 24.7944 9.9944 26.7409C10.8584 27.7497 11.1625 28.7307 11.1625 28.7307C11.1625 28.7307 10.9934 27.6195 10.2442 26.7144C8.69453 24.8533 7.21934 22.5318 7.11077 19.8492Z" fill="black"/>
<path d="M19.8022 13.0193V13.6888C20.0334 13.4082 20.4802 13.4657 20.4802 13.4657V14.4311C20.4802 14.4311 20.4646 14.9054 20.2955 15.1114H20.7795H21.2619C21.096 14.9069 21.0788 14.4311 21.0788 14.4311V13.4657C21.0788 13.4657 21.5256 13.4082 21.7552 13.6888V13.0193H20.7795H19.8022Z" fill="black"/>
<path d="M19.3864 9.04905C19.695 9.29402 19.8734 9.33426 19.8797 9.33896L20.0006 9.39469V8.76392L18.8652 8.28662C18.8652 8.28816 18.876 8.6523 19.3864 9.04905Z" fill="black"/>
<path d="M22.0873 9.04905C22.6007 8.6523 22.61 8.28662 22.61 8.28662L21.4746 8.76392V9.39469L21.594 9.33896C21.6018 9.33426 21.7786 9.29402 22.0873 9.04905Z" fill="black"/>
<path d="M24.1328 6.48107C24.1328 5.52488 22.5212 4.66479 20.7419 4.66479H20.7404H20.7358H20.7311C18.9519 4.66479 17.3402 5.52488 17.3402 6.48107L17.376 6.71661L18.0863 10.7909L17.3729 11.2047L15.5269 12.2817H15.5332C15.5332 12.2817 15.1175 12.494 14.925 12.6258C14.2224 13.114 14.0735 13.8253 14.4814 14.1197C14.5823 13.5401 15.0414 12.9326 15.9007 12.9326C16.5197 12.9326 16.9912 13.2518 17.3729 13.7308C17.4706 13.8516 17.5636 13.9803 17.6505 14.1197C17.7575 14.2948 17.8645 14.4483 17.9716 14.5971H13.2173C13.5663 15.2991 13.8982 16.043 13.8982 16.8504V27.3638C13.8982 29.9085 15.8574 31.1234 17.9762 31.1234C19.6143 31.1234 19.8346 31.0491 20.739 31.9479C21.6386 31.0475 21.8589 31.1234 23.4985 31.1234C25.6189 31.1234 27.575 29.9085 27.575 27.3638V16.8504C27.575 16.043 27.9069 15.2991 28.2575 14.5971H23.5015C23.607 14.4498 23.7141 14.2948 23.821 14.1197C23.9095 13.9803 24.001 13.8516 24.0972 13.7308C24.4818 13.2504 24.9518 12.9326 25.5708 12.9326C26.4301 12.9326 26.8878 13.5386 26.9901 14.1197C27.3982 13.8253 27.2507 13.114 26.5434 12.6258C26.3541 12.494 25.9383 12.2817 25.9383 12.2817H25.9446L24.0987 11.2047L23.3883 10.7909L24.0987 6.71661L24.1328 6.48107ZM18.0398 6.9553L20.5372 7.80142V11.7207L18.6991 10.7522L18.0398 6.9553ZM18.5564 15.2804C18.9659 15.688 19.3677 15.9407 19.7492 16.0801C19.6995 16.277 19.6345 16.683 19.8191 17.0874C19.9695 17.4129 20.2425 17.664 20.6349 17.8314C20.6784 18.2343 20.9328 18.8402 21.6386 19.1084C21.3299 19.4198 21.0289 19.7127 20.9064 19.8321L18.0444 19.7871C17.9794 19.7545 17.8692 19.6817 17.8197 19.5779C17.8134 19.564 17.8041 19.5562 17.7995 19.5407L18.2663 19.6166C18.2772 19.6181 18.2864 19.6181 18.2958 19.6181C18.3858 19.6181 18.4648 19.5562 18.4804 19.4632C18.4959 19.3594 18.4261 19.2648 18.3253 19.2493L17.7513 19.1594L18.3889 16.9603L17.7855 15.6911L16.8176 16.714L16.7585 19.0013L16.1087 18.8991C16.0078 18.8789 15.9116 18.9534 15.8946 19.054C15.879 19.1549 15.9473 19.2493 16.0496 19.268L16.3227 19.3097C16.225 19.3656 16.1614 19.4089 16.1536 19.4151L16.0977 19.4539L16.0822 19.5222C15.9241 20.1637 16.2823 20.7728 16.6687 21.0455L16.6546 21.126C16.6392 21.2253 16.6609 21.3213 16.7198 21.4019C16.7756 21.4841 16.8625 21.5337 16.9586 21.5507C16.9789 21.5538 17.0005 21.5553 17.0192 21.5553C17.1867 21.5553 17.3326 21.4391 17.3744 21.2703C17.5186 21.2872 17.6505 21.2903 17.7405 21.2903H17.8165L21.5719 21.9676L21.6355 21.9258C21.9348 21.7165 23.0749 20.8859 23.4488 20.6115C23.5511 20.6999 23.6659 20.7806 23.8055 20.8471C23.6845 21.2531 23.6768 21.8777 24.1561 22.3706H14.5854V16.8519C14.5854 16.3173 14.4288 15.7795 14.2441 15.2836H18.5564V15.2804ZM23.1975 20.3295C22.8175 20.6085 21.8402 21.3213 21.4866 21.5693L18.074 20.9572C18.0818 20.9262 18.0895 20.8967 18.0973 20.8657C18.1422 20.689 18.1872 20.4473 18.1904 20.1637L21.0584 20.2102L21.1127 20.1543C21.1562 20.111 22.0652 19.2338 22.529 18.7286C22.6391 18.8665 22.7771 18.9983 22.957 19.1145C22.895 19.4493 22.9214 19.9266 23.1975 20.3295ZM17.4845 19.739C17.5652 19.908 17.7109 20.0211 17.8118 20.0847C17.8087 20.2427 17.7932 20.4891 17.7513 20.7061C17.742 20.7541 17.7296 20.7991 17.7156 20.844C17.7079 20.872 17.7001 20.8952 17.6939 20.9138C17.5435 20.9138 17.2472 20.8952 17.0052 20.8068C16.7369 20.7076 16.3367 20.2164 16.4297 19.6756C16.5461 19.6042 16.8144 19.4539 17.0658 19.4539C17.2597 19.4523 17.3914 19.5438 17.4845 19.739ZM17.1293 19.0588L17.1867 16.8627L17.68 16.3405L17.9902 16.9883L17.379 19.0959L17.1293 19.0588ZM23.1665 30.4431C22.9803 30.4431 22.8081 30.4462 22.653 30.4524L23.0595 29.1894C23.1231 29.0142 22.8019 28.7895 22.67 28.5927C22.8702 28.7183 23.3883 28.9926 23.6381 29.1026C23.6117 29.1429 23.1665 30.4431 23.1665 30.4431ZM24.4415 29.0081L24.1763 30.3905C24.0073 30.4137 23.8273 30.426 23.6427 30.4338L23.9219 29.1042C24.0056 28.7089 22.9431 28.5865 22.4189 27.8101C22.1629 28.0983 21.6805 28.1836 21.1965 28.1836C20.7544 28.1836 20.3124 28.1123 20.0439 28.0596C19.9757 28.0488 19.9105 28.041 19.847 28.041C19.6919 28.041 19.5506 28.0891 19.453 28.2533L19.3754 28.3835L17.9282 28.0426L17.5683 28.6377C17.5171 28.7338 17.514 28.816 17.5962 28.9057L17.6939 29.0128C17.6272 29.2235 17.3264 29.5412 17.3264 29.5412L17.1108 29.273C16.94 29.0824 16.968 28.7353 17.1464 28.413L17.7203 27.4443L18.9458 27.621L18.755 27.1871C18.499 26.6137 18.8884 25.8838 18.9302 25.4638C18.9163 25.5909 18.7999 25.6188 18.6634 25.6188C18.5394 25.6188 18.4013 25.5955 18.3097 25.5955C18.2741 25.5955 18.243 25.5986 18.226 25.611L17.894 25.8125L17.6319 25.5815C17.6008 25.5366 17.59 25.4328 17.6675 25.3553L18.2741 24.6765L17.5575 23.8412L18.5611 24.3449L18.8666 23.9745C18.9505 24.0567 18.9147 24.2721 18.9147 24.2721C19.2281 24.2798 20.106 24.7649 20.1526 25.8962C20.1556 25.9302 20.1556 25.969 20.1556 26.0061C20.1556 26.0061 20.1635 26.0201 20.1789 26.0434C20.241 26.1287 20.4116 26.3471 20.6287 26.3673L22.0155 26.5037H22.0216C22.1738 26.5037 22.4762 26.3255 22.8639 26.3255C23.0749 26.3255 23.3107 26.3797 23.562 26.5378C23.562 26.5378 23.6876 26.4386 23.8924 26.4277C23.9079 26.4261 23.9251 26.4261 23.9405 26.4261C24.5626 26.4261 24.82 26.9872 25.1535 27.4537C25.4049 27.8086 25.7399 28.3355 25.7399 28.3355C25.6158 28.4827 25.5009 28.5633 25.3087 28.5633C25.256 28.5633 25.1954 28.5586 25.1302 28.5462C24.4632 28.4238 24.3671 27.0538 23.9871 26.9453C23.9669 26.9391 23.9452 26.9376 23.9266 26.9376C23.804 26.9376 23.7498 27.0461 23.7498 27.0461C23.9234 27.5125 23.8226 27.7016 24.0088 28.0612C24.1483 28.3277 24.3965 28.5478 24.4989 28.6516C24.4989 28.6547 24.471 28.8562 24.4415 29.0081ZM16.9944 27.7L17.0579 27.8597C17.0161 27.9992 16.5353 28.1975 16.5353 28.1975L16.4312 27.9712C16.3211 27.7295 16.3444 27.3219 16.6795 27.0724L17.4581 26.5982L18.2834 26.7733C18.2679 27.0352 18.4245 27.2305 18.4245 27.2305L17.559 27.0647L17.0409 27.4227C16.954 27.4831 16.9478 27.5963 16.9944 27.7ZM24.5719 30.3145L24.8092 29.0777C24.8216 29.005 24.8371 28.9197 24.8479 28.8484C24.9146 28.8764 24.986 28.8996 25.0635 28.9135C25.1519 28.9306 25.2341 28.9383 25.3087 28.9383C25.6717 28.9383 25.8826 28.7477 26.0238 28.5849L26.2068 28.3727L26.0579 28.1402C26.0439 28.117 25.7151 27.5963 25.4607 27.2398C25.411 27.1701 25.3629 27.1003 25.3149 27.0244C25.0264 26.5935 24.6649 26.0528 23.9405 26.0528L23.8754 26.0543C23.7559 26.062 23.6536 26.0852 23.5714 26.1162C23.3433 26.0093 23.1091 25.9551 22.8655 25.9551C22.5662 25.9551 22.3133 26.0373 22.1458 26.0945C22.0977 26.1085 22.0543 26.124 22.0202 26.1302L20.666 25.9969C20.6489 25.9939 20.593 25.9613 20.5263 25.8807V25.8745L20.8195 25.7567C20.7373 24.782 19.8004 24.1822 19.2777 23.9791C19.2545 23.8815 19.2079 23.7838 19.1257 23.7049L18.8341 23.429L18.5781 23.7359L18.4525 23.8924L16.557 23.1143L17.7901 24.661L17.303 25.3972C17.1246 25.5862 17.3217 25.7753 17.3217 25.7753L17.8242 26.1209L18.3455 25.9272C18.364 25.9272 18.3796 25.9319 18.3966 25.9334C18.3718 26.0124 18.3392 26.3223 18.3175 26.4091L17.4131 26.2309L16.4623 26.7672C15.9737 27.1251 15.907 27.7187 16.0885 28.1248L16.1939 28.3555L16.3444 28.6811L16.6763 28.5431C16.681 28.5415 16.6857 28.54 16.6887 28.537C16.5693 28.9182 16.6175 29.2808 16.8314 29.5195L17.0331 29.7736L17.3015 30.113L17.5962 29.7968C17.6831 29.7101 17.9639 29.3955 18.0507 29.1258L18.1143 28.9196L17.9701 28.7616L17.9468 28.7338L18.1082 28.4672L19.2885 28.7446L19.5538 28.805L19.6949 28.5725L19.7725 28.4454C19.7865 28.4191 19.7911 28.4144 19.8454 28.4144C19.8873 28.4144 19.9292 28.4191 19.9742 28.4285C20.4193 28.5121 20.8303 28.554 21.1949 28.554C21.5486 28.554 21.7595 28.54 22.0124 28.4564C22.0124 28.4564 22.6468 29.1754 22.6685 29.2033L22.2808 30.3997L22.2637 30.4726C21.5284 30.5314 21.1701 30.6926 20.7373 31.125C20.1091 30.5019 19.6639 30.4369 17.9748 30.4369C15.9535 30.4369 14.5839 29.2529 14.5839 27.3622V22.7394H26.8878L26.8909 27.3622C26.8924 28.8964 25.9912 29.9657 24.5719 30.3145ZM27.2321 15.2804C27.0445 15.7764 26.8878 16.3142 26.8878 16.8488L26.8894 20.2986C26.168 20.1777 26.0827 19.4012 26.0796 19.3672L26.0656 19.2091L25.9105 19.1951C25.5972 19.1657 25.3893 19.0323 25.214 18.862C24.8604 18.5086 24.8588 17.9352 24.8604 17.9305C24.8558 17.9599 24.471 18.4977 24.9178 19.085C25.1054 19.333 25.3769 19.4849 25.729 19.5454C25.8112 19.9762 26.1323 20.5836 26.8894 20.6767V22.3659H24.7611C23.7792 21.8204 24.1949 20.8595 24.215 20.8193L24.2988 20.6363L24.1111 20.565C23.0486 20.1714 23.3402 19.1114 23.3557 19.0665L23.3991 18.9114L23.2549 18.8433C22.3769 18.4372 22.4964 17.3416 22.5073 17.2967C22.2373 17.5152 22.1396 17.9615 22.3257 18.3985C22.2249 18.5132 22.09 18.6527 21.9426 18.8045C21.0336 18.5737 21.0058 17.7384 21.0058 17.6997L21.0041 17.571L20.8847 17.5245C20.5295 17.3927 20.2859 17.196 20.1665 16.9309C20.0316 16.6381 20.0796 16.3312 20.1169 16.1839C20.2208 16.2072 20.3247 16.2243 20.424 16.232C20.5263 16.2428 20.6318 16.2491 20.7373 16.2491H20.7436H20.7513C20.8568 16.2491 20.9608 16.2428 21.0631 16.232C21.6292 16.1762 22.2637 15.9329 22.9245 15.2789H27.2321V15.2804ZM23.9157 11.7935L24.7564 12.2817H24.7688L24.9798 12.4041C24.5051 12.5359 24.1422 12.773 23.8382 13.0845C23.8273 13.0938 23.8165 13.1062 23.8055 13.117C23.7358 13.1914 23.6659 13.272 23.6008 13.3542C23.5884 13.3697 23.576 13.3867 23.562 13.4038C23.4969 13.4874 23.4364 13.5727 23.3774 13.6625C23.3681 13.6781 23.3572 13.6936 23.3464 13.7075C23.2766 13.8113 23.21 13.9229 23.1433 14.0375C22.5445 15.0681 21.5889 15.6834 20.739 15.685C19.8904 15.6834 18.9349 15.0681 18.3361 14.0375C18.2709 13.9259 18.2058 13.8175 18.136 13.7121C18.122 13.692 18.1096 13.6719 18.0973 13.6547C18.0383 13.5696 17.9794 13.4859 17.9189 13.4069C17.9034 13.3852 17.8893 13.3681 17.8739 13.3495C17.8087 13.2704 17.742 13.1914 17.6753 13.1186C17.6614 13.1078 17.652 13.0938 17.6381 13.0814C17.3326 12.7699 16.9711 12.5343 16.4949 12.4041L16.7089 12.2817H16.7182L17.559 11.7935L18.423 11.2992L20.7311 12.5545L20.7358 12.5498L20.7419 12.5545L23.0501 11.2992L23.9157 11.7935ZM22.7771 10.7536L20.9374 11.7223V7.80142L23.4333 6.9553L22.7771 10.7536ZM20.7373 7.37061L18.0011 6.29048C18.2337 5.74033 19.3071 5.27223 20.7373 5.27069C22.1691 5.27223 23.2425 5.74033 23.4736 6.29048L20.7373 7.37061Z" fill="black"/>
<path d="M54.622 23.7721V17.5668H58.2652V15.3087H48.3262V17.5668H51.9692V23.7721H54.622ZM61.8912 20.2339V15.3087H59.3269V23.7721H61.5906L66.0119 18.847V23.7721H68.5763V15.3087H66.3125L61.8912 20.2339ZM77.2033 20.6251V23.7721H79.768V15.3087H77.2033V18.4024H73.0826V15.3087H70.5183V23.7721H73.0826V20.6251H77.2033ZM86.909 23.7721C87.4925 23.7721 88.0231 23.7189 88.5184 23.5766C89.8455 23.2033 90.7111 22.1185 90.7111 20.6428C90.7111 19.2382 89.969 18.2603 88.7844 17.8157C88.217 17.6024 87.5462 17.5846 86.909 17.5846H84.2739V15.3087H81.71V23.7721H86.909ZM86.4667 19.576C86.8209 19.576 87.1567 19.576 87.4572 19.6827C87.882 19.8249 88.1296 20.1805 88.1296 20.6072C88.1296 21.0518 87.882 21.4252 87.4749 21.6029C87.192 21.7274 86.909 21.7274 86.4667 21.7274H84.2739V19.576H86.4667ZM95.309 20.5717L98.3689 23.7721H101.782L97.5202 19.3626L101.623 15.3087H98.4042L95.309 18.4914H94.6021V15.3087H92.0383V23.7721H94.6021V20.5717H95.309ZM107.058 15.0776C103.609 15.0776 101.541 17.0334 101.541 19.5581C101.541 22.0831 103.609 24.0389 107.058 24.0389C110.49 24.0389 112.559 22.0831 112.559 19.5581C112.559 17.0334 110.49 15.0776 107.058 15.0776ZM107.058 21.9764C105.343 21.9764 104.247 20.9451 104.247 19.5581C104.247 18.1714 105.343 17.1578 107.058 17.1578C108.756 17.1578 109.87 18.1714 109.87 19.5581C109.87 20.9451 108.756 21.9764 107.058 21.9764ZM121.099 14.8286H118.535V15.682C115.316 15.7532 113.388 17.1222 113.388 19.5404C113.388 21.9585 115.316 23.221 118.535 23.2921V24.1456H121.099V23.2921C124.335 23.221 126.263 21.9585 126.263 19.5404C126.263 17.1222 124.335 15.7532 121.099 15.682V14.8286ZM118.535 21.4785C116.766 21.4074 115.988 20.6784 115.988 19.5404C115.988 18.4024 116.766 17.5846 118.535 17.5135V21.4785ZM121.099 17.5135C122.886 17.5846 123.646 18.4024 123.646 19.5404C123.646 20.6784 122.886 21.4074 121.099 21.4785V17.5135ZM134.794 14.8286H132.23V15.682C129.011 15.7532 127.084 17.1222 127.084 19.5404C127.084 21.9585 129.011 23.221 132.23 23.2921V24.1456H134.794V23.2921C138.031 23.221 139.959 21.9585 139.959 19.5404C139.959 17.1222 138.031 15.7532 134.794 15.682V14.8286ZM132.23 21.4785C130.462 21.4074 129.683 20.6784 129.683 19.5404C129.683 18.4024 130.462 17.5846 132.23 17.5135V21.4785ZM134.794 17.5135C136.581 17.5846 137.341 18.4024 137.341 19.5404C137.341 20.6784 136.581 21.4074 134.794 21.4785V17.5135Z" fill="black"/>
</svg>
