<svg width="52" height="30" viewBox="0 0 52 30" fill="none" xmlns="http://www.w3.org/2000/svg">
<path d="M51.5365 26.7581C51.3967 26.5215 50.5322 24.622 46.3719 20.7177C42.0166 16.6294 42.6016 17.2933 47.8475 10.2243C51.0425 5.91908 52.3198 3.28996 51.92 2.16601C51.5398 1.09465 49.1898 1.37728 49.1898 1.37728L41.3763 1.42329C41.3763 1.42329 40.7977 1.34441 40.3654 1.60404C39.9462 1.86038 39.6764 2.45193 39.6764 2.45193C39.6764 2.45193 38.438 5.78433 36.7869 8.61721C33.3059 14.5952 31.9116 14.9107 31.3428 14.5393C30.0199 13.675 30.3515 11.0623 30.3515 9.20876C30.3515 3.41484 31.2193 0.999343 28.6581 0.374927C27.8065 0.167884 27.1825 0.029856 25.0081 0.00685119C22.2194 -0.0227264 19.8564 0.0167103 18.5206 0.677276C17.63 1.11765 16.9442 2.10029 17.3635 2.15615C17.8803 2.22517 19.0504 2.47493 19.6712 3.3294C20.474 4.43034 20.4447 6.90828 20.4447 6.90828C20.4447 6.90828 20.9063 13.7276 19.3689 14.5754C18.3126 15.1571 16.8662 13.9707 13.7622 8.54491C12.1729 5.7679 10.9703 2.69512 10.9703 2.69512C10.9703 2.69512 10.7395 2.12329 10.3267 1.81766C9.8262 1.44629 9.12415 1.32798 9.12415 1.32798L1.6941 1.37399C1.6941 1.37399 0.579268 1.40686 0.169738 1.89653C-0.194289 2.33362 0.140486 3.23409 0.140486 3.23409C0.140486 3.23409 5.95841 16.9942 12.5434 23.9318C18.5856 30.291 25.4436 29.8736 25.4436 29.8736H28.5508C28.5508 29.8736 29.4901 29.7684 29.9679 29.2459C30.41 28.7661 30.3937 27.8656 30.3937 27.8656C30.3937 27.8656 30.332 23.6492 32.2691 23.0281C34.177 22.4168 36.6277 27.1032 39.2246 28.9074C41.1878 30.2713 42.6796 29.9722 42.6796 29.9722L49.6254 29.8736C49.6254 29.8736 53.2591 29.6469 51.5365 26.7581Z" fill="#F5F5F5"/>
</svg>
