<svg width="121" height="150" viewBox="0 0 121 150" fill="none" xmlns="http://www.w3.org/2000/svg">
<path d="M71.3986 55.1105C68.4386 53.5594 65.1323 52.7691 61.7833 52.8121H44.3875V96.6315H61.7833C65.1347 96.6762 68.4445 95.8851 71.4071 94.3331C74.2989 92.7932 76.6856 90.4671 78.2858 87.629C79.9871 84.6895 80.839 81.219 80.839 77.2161V72.231C80.839 68.227 79.9871 64.7577 78.2858 61.8181C76.6846 58.977 74.2946 56.6493 71.3986 55.1105ZM70.7435 78.6181C70.7435 81.8577 69.9123 84.3605 68.2538 86.1266C66.5952 87.8927 64.438 88.7746 61.7833 88.7746H54.0406V60.669H61.7833C64.4417 60.669 66.5989 61.552 68.2587 63.3218C69.9172 65.0903 70.7471 67.5919 70.7471 70.8242L70.7435 78.6181ZM26.2778 82.6391L10.3522 52.8121H1.39947V52.8194H0.521912V96.6411H9.30113L8.8758 66.8262L24.7952 96.6411H33.7505L33.7468 96.6327H34.6317V52.8109H25.8549L26.2766 82.6391H26.2778ZM90.2868 93.9242C93.4841 96.1706 97.5272 97.2931 102.416 97.2931C107.806 97.2931 112.031 96.1331 115.094 93.8153C118.157 91.4964 119.695 87.8468 119.706 82.8677C119.706 80.0153 118.997 77.7363 117.579 76.0294C116.234 74.3728 114.49 73.0771 112.507 72.2613C110.05 71.2997 107.529 70.5103 104.961 69.8988C102.884 69.3883 101.245 68.919 100.043 68.4919C98.9453 68.1348 97.9322 67.5621 97.064 66.8081C96.6879 66.4762 96.3893 66.0674 96.1888 65.61C95.9883 65.1525 95.8907 64.6574 95.9029 64.1589C95.9029 62.9274 96.5238 61.9379 97.7668 61.1915C99.0086 60.444 100.749 60.0714 102.991 60.0714C105.149 60.0714 106.839 60.531 108.063 61.448C108.657 61.8847 109.134 62.458 109.453 63.1184C109.773 63.7788 109.925 64.5063 109.896 65.2379V65.8149H118.791V65.019C118.791 60.7609 117.305 57.5552 114.333 55.4056C111.36 53.256 107.531 52.1806 102.846 52.1806C100.02 52.1394 97.2109 52.6265 94.567 53.6165C92.2207 54.4869 90.1749 56.0034 88.671 57.9871C87.1958 59.9516 86.4588 62.3383 86.4588 65.1448C86.4588 68.169 87.1677 70.5738 88.5854 72.3617C89.917 74.0773 91.6763 75.4208 93.6907 76.2605C96.1587 77.2378 98.6903 78.0497 101.268 78.6907C103.346 79.2012 104.966 79.6585 106.126 80.0637C107.189 80.4121 108.165 80.977 108.993 81.7222C109.366 82.0694 109.659 82.4911 109.854 82.9594C110.049 83.4276 110.142 83.9317 110.125 84.4379C110.132 85.1395 109.966 85.8322 109.641 86.456C109.317 87.0797 108.843 87.6157 108.262 88.0173C107.019 88.9524 104.974 89.4194 102.123 89.4194C99.6808 89.4194 97.7863 88.875 96.4394 87.7899C95.7773 87.2566 95.2502 86.5777 94.9001 85.8071C94.55 85.0366 94.3865 84.1957 94.4228 83.3516L94.4827 82.3282H85.5482L85.4847 83.7315C85.4871 88.2919 87.0882 91.6911 90.288 93.9242H90.2868ZM70.2032 107.024C67.195 105.497 63.8626 104.7 60.4817 104.7C57.1008 104.7 53.7684 105.497 50.7601 107.024C47.8342 108.585 45.4184 110.939 43.7959 113.81C42.0946 116.758 41.2146 120.304 41.2146 124.338V130.409C41.2146 134.43 42.0652 137.988 43.7959 140.936C45.4184 143.807 47.8342 146.162 50.7601 147.723C53.3683 149.108 56.3677 149.728 60.4817 149.728C64.5957 149.728 67.595 149.108 70.2032 147.723C73.1293 146.162 75.545 143.808 77.1675 140.936C78.8688 137.988 79.7488 134.439 79.7488 130.409V124.325C79.7488 120.304 78.8981 116.746 77.1675 113.798C75.5433 110.931 73.1276 108.581 70.2032 107.024ZM69.663 122.88V131.84C69.663 135.041 68.8111 137.542 67.1098 139.281C65.4085 141.021 63.1913 141.896 60.4768 141.896C57.7635 141.896 55.5341 141.016 53.8499 139.281C52.1645 137.546 51.2967 135.041 51.2967 131.84V122.877C51.2967 119.681 52.1473 117.175 53.8499 115.437C55.5512 113.698 57.7671 112.822 60.4768 112.822C63.1877 112.822 65.417 113.701 67.1098 115.436C68.8026 117.171 69.6667 119.681 69.6667 122.877L69.663 122.88ZM118.021 125.407C119.158 123.341 119.744 121.022 119.723 118.669V118.287C119.754 115.938 119.152 113.622 117.979 111.579C116.862 109.63 115.24 108.011 113.281 106.889C111.322 105.766 109.096 105.18 106.832 105.192H87.3559V149.032H96.9454V132.092H106.845C109.14 132.111 111.394 131.491 113.35 130.303C115.32 129.112 116.933 127.421 118.021 125.406V125.407ZM110.082 118.923C110.089 120.34 109.529 121.702 108.526 122.712C108.026 123.243 107.418 123.664 106.741 123.944C106.065 124.225 105.336 124.361 104.603 124.342H96.9467V113.044H104.604C105.342 113.019 106.078 113.151 106.76 113.432C107.442 113.713 108.055 114.137 108.557 114.674C109.557 115.715 110.105 117.103 110.084 118.54V118.923H110.082ZM24.2355 122.586H9.88169V105.171H0.521912V149.033H9.94524V130.762H24.2355V149.033H33.5903V105.171H24.2355V122.586ZM27.5367 21.2238C32.4586 19.8206 34.6745 16.529 34.6745 11.8887V11.6444C34.6745 4.14436 29.7526 0.301208 20.0909 0.301208H0.521912V43.9185H20.8915C31.1703 43.9185 36.3391 39.7718 36.3391 31.7081V31.4601C36.3391 25.6149 33.2799 22.3863 27.5367 21.2238ZM10.2471 7.07177H18.4275C23.1037 7.07177 25.1961 8.72177 25.1961 12.3823V12.6254C25.1961 16.529 23.3506 18.2383 18.4874 18.2383H10.2471V7.07177ZM26.4734 30.9254C26.4734 34.8907 24.2562 37.0851 19.3344 37.0851H10.2471V24.5794H18.8577C24.2734 24.5794 26.4721 26.5923 26.4721 30.681V30.9254H26.4734ZM54.296 27.081H59.6689L68.5569 43.9234H78.8003L69.0165 25.396H69.0971C71.5839 24.7337 73.8266 23.3794 75.559 21.4935C77.2212 19.6028 78.1452 17.1605 78.1452 13.8085V13.5641C78.1452 9.11008 76.483 5.75443 73.5301 3.56008C70.5772 1.36693 66.3227 0.301208 61.1539 0.301208H44.3875V43.9185H54.296V27.0798V27.081ZM54.296 7.8629H60.9082C65.7702 7.8629 68.8405 9.3871 68.8405 13.8423V14.0867C68.8405 18.2347 65.8937 20.3685 60.9082 20.3685H54.296V7.8629ZM86.3903 24.2806V32.6093H103.245L109.415 43.9234H119.646L96.0471 0.583063H85.8171L98.7018 24.2806H86.3903ZM116.562 143.463C116.701 143.331 116.808 143.171 116.876 142.993C116.944 142.815 116.97 142.624 116.953 142.435C116.973 142.22 116.939 142.004 116.856 141.805C116.772 141.607 116.641 141.431 116.473 141.294C116.045 141.031 115.545 140.909 115.043 140.944H113.06V146.136H113.911V143.918H114.72L116.072 146.136H117.046L115.579 143.854C115.939 143.826 116.282 143.689 116.562 143.463ZM114.86 143.185H113.899V141.669H115.353C115.48 141.679 115.604 141.71 115.72 141.761C115.826 141.809 115.92 141.883 115.991 141.976C116.068 142.086 116.105 142.218 116.098 142.351C116.106 142.506 116.071 142.661 115.996 142.798C115.93 142.9 115.84 142.984 115.732 143.042C115.612 143.103 115.48 143.139 115.345 143.147C115.192 143.175 115.036 143.189 114.88 143.188L114.86 143.185Z" fill="black"/>
<path d="M114.839 137.421C114.047 137.418 113.263 137.57 112.531 137.868C111.798 138.165 111.132 138.603 110.571 139.155C110.01 139.707 109.563 140.364 109.258 141.087C108.953 141.81 108.795 142.585 108.792 143.369C108.79 144.152 108.944 144.928 109.244 145.653C109.545 146.378 109.987 147.037 110.545 147.593C111.103 148.148 111.766 148.59 112.497 148.892C113.227 149.194 114.011 149.35 114.802 149.353C116.401 149.358 117.936 148.734 119.07 147.618C120.204 146.503 120.844 144.987 120.848 143.405C120.853 141.823 120.223 140.303 119.096 139.181C117.969 138.059 116.438 137.425 114.839 137.421ZM114.839 148.937C113.73 148.94 112.645 148.617 111.722 148.009C110.798 147.401 110.078 146.535 109.653 145.522C109.335 144.764 109.191 143.947 109.23 143.127C109.27 142.308 109.493 141.508 109.883 140.784C110.272 140.06 110.819 139.431 111.484 138.941C112.149 138.452 112.915 138.114 113.728 137.953C114.815 137.737 115.943 137.845 116.968 138.265C117.993 138.684 118.869 139.395 119.484 140.308C120.204 141.374 120.528 142.654 120.402 143.93C120.276 145.206 119.707 146.399 118.793 147.307C117.745 148.347 116.323 148.933 114.839 148.937Z" fill="black"/>
</svg>
