<svg width="38" height="40" viewBox="0 0 38 40" fill="none" xmlns="http://www.w3.org/2000/svg">
<path d="M10.8571 20C10.8571 18.9959 10.047 18.1818 9.04762 18.1818H1.80952C0.810184 18.1818 0 18.9959 0 20C0 21.0041 0.810184 21.8182 1.80952 21.8182H9.04762C10.047 21.8182 10.8571 21.0041 10.8571 20Z" fill="black"/>
<path d="M36.1905 18.1818H32.5714C31.5721 18.1818 30.7619 18.9959 30.7619 20C30.7619 21.0041 31.5721 21.8182 32.5714 21.8182H36.1905C37.1898 21.8182 38 21.0041 38 20C38 18.9959 37.1898 18.1818 36.1905 18.1818Z" fill="black"/>
<path d="M19.9048 10.9091C20.9041 10.9091 21.7143 10.095 21.7143 9.09091V1.81818C21.7143 0.814061 20.9041 0 19.9048 0C18.9054 0 18.0952 0.814061 18.0952 1.81818V9.09091C18.0952 10.095 18.9054 10.9091 19.9048 10.9091Z" fill="black"/>
<path d="M19.9049 29.0909C18.9055 29.0909 18.0954 29.905 18.0954 30.9091V38.1818C18.0954 39.1859 18.9055 40 19.9049 40C20.9042 40 21.7144 39.1859 21.7144 38.1818V30.9091C21.7144 29.905 20.9042 29.0909 19.9049 29.0909Z" fill="black"/>
<path d="M8.38895 5.85782C7.68251 5.14776 6.53672 5.14788 5.82992 5.85782C5.12324 6.56788 5.12324 7.71903 5.82992 8.42909L10.9481 13.5719C11.3014 13.9269 11.7646 14.1045 12.2276 14.1045C12.6906 14.1045 13.1538 13.9269 13.507 13.572C14.2137 12.8619 14.2137 11.7108 13.507 11.0007L8.38895 5.85782Z" fill="black"/>
<path d="M28.8614 26.4284C28.1549 25.7184 27.0091 25.7184 26.3024 26.4284C25.5957 27.1384 25.5958 28.2896 26.3024 28.9996L31.4207 34.1422C31.774 34.4972 32.2371 34.6747 32.7003 34.6747C33.1634 34.6747 33.6265 34.4971 33.9797 34.1422C34.6864 33.4321 34.6864 32.281 33.9797 31.5709L28.8614 26.4284Z" fill="black"/>
<path d="M10.9481 26.4284L5.83004 31.5709C5.12336 32.281 5.12336 33.4321 5.83004 34.1422C6.18338 34.4972 6.6465 34.6747 7.10962 34.6747C7.57274 34.6747 8.03585 34.4972 8.38907 34.1422L13.5071 28.9996C14.2138 28.2896 14.2138 27.1384 13.5071 26.4284C12.8005 25.7183 11.6547 25.7183 10.9481 26.4284Z" fill="black"/>
</svg>
