<svg width="406" height="89" viewBox="0 0 406 89" fill="none" xmlns="http://www.w3.org/2000/svg">
<path d="M48.8467 0.367476C20.9342 -2.49002 -2.53762 21.005 0.317069 48.945C2.22019 69.9 19.0311 86.41 39.6483 88.6325C67.5608 91.49 91.0327 67.995 88.178 40.055C86.2749 19.1 69.4639 2.58998 48.8467 0.367476ZM47.2608 67.995C32.0358 69.9 19.0311 56.8825 20.9343 41.325C22.203 30.8475 30.7671 22.275 41.2343 21.005C56.7764 19.1 69.7811 32.1175 67.878 47.675C66.2921 58.1525 57.728 66.725 47.2608 67.995Z" fill="black"/>
<path d="M111.967 2.27244C105.623 2.27244 100.548 7.98744 101.817 14.6549C102.769 19.4174 107.527 22.9099 112.284 22.9099H141.148L96.425 81.9649C94.839 83.8699 96.425 86.7274 98.6453 86.7274H169.061C174.136 86.7274 178.577 83.5524 179.528 78.4724C180.797 71.8049 175.722 66.0899 169.378 66.0899H134.487L179.211 7.03494C180.797 5.12994 179.211 2.27244 176.673 2.27244H111.967Z" fill="black"/>
<path d="M393.313 2.2723C388.555 3.2248 385.066 7.6698 385.066 12.7498V47.3573L329.241 2.9073C327.338 1.3198 324.483 2.5898 324.483 5.1298V76.2498C324.483 81.0123 327.655 85.7748 332.73 86.7273C339.391 87.9973 345.417 82.9173 345.417 76.5673V41.6423L401.242 86.0923C403.145 87.6798 406 86.0923 406 83.8698V12.4323C406 6.0823 399.974 1.0023 393.313 2.2723Z" fill="black"/>
<path d="M247.723 21.0051C271.512 21.0051 288.958 33.3876 288.958 44.5C288.958 55.6125 271.195 67.995 247.723 67.995C224.251 67.995 206.489 55.6125 206.489 44.5C206.489 33.3876 224.251 21.0051 247.723 21.0051ZM247.723 0.0500488C213.467 0.0500488 185.872 19.7351 185.872 44.5C185.872 69.265 213.784 88.9501 247.723 88.9501C281.662 88.9501 309.575 68.9475 309.575 44.5C309.892 20.0526 281.98 0.0500488 247.723 0.0500488Z" fill="black"/>
</svg>
