<svg width="180" height="120" viewBox="0 0 180 120" fill="none" xmlns="http://www.w3.org/2000/svg">
<path d="M47.8588 2.54102C40.2879 10.9951 37.0535 16.0242 35.3175 22.0107C33.7327 27.4734 34.5719 31.9822 37.7342 35.1109C40.2447 37.6038 42.91 38.5323 47.5202 38.5323C51.2697 38.5323 54.4789 37.9181 59.1792 36.3104C61.7544 35.4505 144.883 0.861044 145.449 0.434727C145.46 0.424556 145.469 0.412047 145.476 0.398032C145.482 0.384016 145.485 0.368815 145.485 0.353438C145.485 0.338061 145.482 0.322859 145.476 0.308844C145.469 0.294828 145.46 0.28232 145.449 0.272149C145.405 0.228794 127.17 4.96886 104.914 10.8145C82.6771 16.6384 63.6093 21.6025 62.5468 21.8265C59.6078 22.4406 54.7958 22.3937 52.714 21.7361C51.4032 21.3273 50.202 20.6255 49.2007 19.6837C48.1994 18.7419 47.4241 17.5846 46.9332 16.2988C46.4793 15.186 46.4109 14.5754 46.4109 12.3752C46.4361 9.13449 47.0232 6.95955 49.0114 2.88063C49.7569 1.36323 50.344 0.0481515 50.2972 0.00118434C50.2324 -0.0421699 49.1446 1.11033 47.8588 2.54102ZM13.606 60.2925C5.73978 62.0809 0.387556 69.0862 0.0237775 78.1039C-0.156311 82.4141 0.679299 85.6295 2.77913 88.8955C3.88847 90.5502 7.411 94.0836 9.78456 95.8973C13.9194 99.0477 15.0503 100.569 14.8234 102.675C14.6649 103.99 13.9878 104.919 12.6552 105.554C9.42438 107.162 4.79251 105.168 1.01786 100.543L0.182255 99.5246V118.358L1.695 118.835C4.7673 119.811 5.76499 119.923 11.1388 119.923C15.9544 119.923 16.4514 119.879 18.0326 119.402C22.8013 117.907 26.6876 114.644 28.8559 110.36C29.2629 109.565 29.7816 108.409 30.0085 107.751L30.4371 106.552V113.055L30.4587 119.583H45.8238L45.8706 105.442L45.9391 91.2981L51.3597 105.374L56.8056 119.471L63.404 119.54L70.0025 119.583V60.4262H54.6373L54.5905 73.2555L54.5257 86.0631L50.9095 73.2555L47.2933 60.4298H30.4587V77.8113C30.4371 95.153 30.4371 95.218 30.0085 94.0402C28.9243 91.0054 26.7525 88.238 23.3452 85.5645C22.0089 84.5204 20.1576 83.0463 19.2068 82.2985C16.9701 80.5282 16.0012 79.1264 16.0012 77.6306C16.0012 76.6768 16.1093 76.3842 16.8116 75.6363C17.7373 74.5922 18.7566 74.184 20.3809 74.2093C22.1674 74.2526 24.8543 75.6797 26.8425 77.6523L28.4273 79.2167V62.2868L26.9794 61.6979C23.9287 60.4949 22.2106 60.1553 18.4828 60.0649C16.0444 60.018 14.5533 60.0866 13.6024 60.2925H13.606ZM162.236 60.4045C161.336 60.6322 159.708 61.2427 158.645 61.7883C155.368 63.4177 152.184 66.9113 150.736 70.4447C150.419 71.2395 150.149 71.9187 150.106 71.9404C150.059 71.9874 149.673 71.2829 149.245 70.3543C146.623 64.7111 141.451 61.5823 133.271 60.6755C131.6 60.4732 125.722 60.4262 113.407 60.4732L95.9207 60.5418L92.0561 68.79L88.1914 77.0201L88.1229 68.7213L88.0797 60.4262H72.2608V119.583H88.0797V107.162L88.1013 94.7664L92.8701 107.162L97.6604 119.583H127.62L127.692 111.469C127.714 107.025 127.714 101.7 127.692 99.6402C127.667 97.5772 127.735 96.0562 127.825 96.2369C127.915 96.4175 129.857 101.746 132.14 108.069L136.275 119.558L145.787 119.673C151.01 119.746 157.291 119.854 159.751 119.948C163.731 120.06 164.383 120.013 166.191 119.587C168.72 118.986 171.087 117.836 173.125 116.218C175.163 114.6 176.823 112.553 177.987 110.222C179.345 107.502 179.842 105.305 179.975 101.678C180.27 93.903 177.987 89.6868 170.441 84.0001C165.154 80.0332 164.001 78.0823 165.579 75.8387C167.164 73.5987 170.848 73.7324 174.101 76.1566C175.455 77.1537 178.009 79.7839 178.009 80.1669C178.009 80.2825 178.124 80.3728 178.235 80.3728C178.372 80.3728 178.462 77.2007 178.462 71.3298V62.3049L177.151 61.716C174.576 60.5599 172.383 60.1516 167.956 60.0613C164.542 59.9927 163.616 60.0396 162.236 60.4009V60.4045ZM111.758 100.251L111.693 112.444L106.337 99.4812C103.376 92.3639 100.96 86.446 100.96 86.334C100.96 86.2437 103.373 81.1207 106.312 74.9788L111.693 63.7789L111.758 75.929C111.783 82.6164 111.783 93.5633 111.758 100.251ZM131.938 74.184C134.128 75.4304 135.281 77.9233 135.011 80.94C134.694 84.8817 132.209 87.6021 128.931 87.6238H127.62V73.2772L129.179 73.3928C130.379 73.4831 131.034 73.6854 131.938 74.1876V74.184ZM154.262 91.775C155.325 92.8841 157.223 94.6075 158.465 95.6046C159.708 96.6018 161.199 97.8012 161.808 98.2998C165.244 101.201 164.34 105.305 160.09 106.075C157.313 106.573 152.386 103.853 150.127 100.569C149.767 100.045 149.382 99.6402 149.292 99.6402C149.176 99.6402 149.065 101.858 149.04 104.554L148.975 109.453L145.517 102.267C143.597 98.2998 142.081 95.0591 142.128 95.0374C144.476 93.8596 145.132 93.3827 146.623 91.9303C147.981 90.5936 148.546 89.7988 149.313 88.2597L150.286 86.2871L151.301 88.0104C151.867 88.9859 153.156 90.6189 154.262 91.775Z" fill="black"/>
</svg>
