<svg width="284" height="31" viewBox="0 0 284 31" fill="none" xmlns="http://www.w3.org/2000/svg">
<g clip-path="url(#clip0)">
<path d="M28.7645 20.9483C28.7645 28.6921 21.0302 31 14.2489 31C6.69609 31 0.0410222 27.6086 0 20.1903H11.745C11.745 21.6117 13.0845 21.9914 14.4256 21.9914C15.7162 21.9914 16.8459 21.6566 16.8459 20.5701C16.8459 19.6075 16.1091 19.1441 13.9523 18.9364C7.34298 18.3908 0.173556 17.2996 0.173556 9.51238C0.171978 3.52163 6.78129 2.81259e-05 14.2489 2.81259e-05C22.07 2.81259e-05 28.1128 3.22403 28.2911 9.96963H16.8444C16.7954 9.04738 15.6342 8.59013 14.4651 8.59013C13.43 8.59013 12.0905 9.00863 12.0905 10.2285C12.0905 11.2298 12.9125 11.6932 13.9507 11.7723C20.2997 12.2745 28.7645 12.989 28.7645 20.9483ZM29.7269 9.68598H36.1674V30.9551H47.955V9.68598H54.3876V2.81259e-05H29.7269V9.68598ZM136.946 2.81259e-05V9.68598H143.382V30.9551H155.178V9.68598H161.613V2.81259e-05H136.946ZM109.824 21.2769H97.3442V18.3117H109.824V12.648H97.3442V9.68598H109.824V2.81259e-05H85.5944V30.9551H109.824V21.2769ZM111.273 30.9551H135.501V21.2769H123.019V18.3117H135.501V12.648H123.019V9.68598H135.501V2.81259e-05H111.273V30.9551ZM259.331 9.64103H265.767V30.9117H277.56V9.64103H284V-0.0449219H259.331V9.64103ZM83.6932 11.4173C83.6932 2.16848 76.396 0.0480781 68.8763 2.81259e-05H55.8328V30.9551H67.6283V22.7323H68.4487L72.2953 30.9551H84.1713V29.9925L79.2486 20.4352C81.9261 18.755 83.6932 15.9201 83.6932 11.4173ZM69.1382 13.4447H67.4958V9.28918H69.1382C71.0805 9.28918 71.9908 9.95258 71.9908 11.4173C71.9908 12.9177 71.0805 13.4044 69.1382 13.4447ZM197.277 14.0678C199.655 13.2231 200.947 10.9275 200.995 8.44908C201.119 3.85023 197.536 -0.0449219 193.046 -0.0449219H173.955V30.9132H192.962C198.271 30.9132 202.333 27.2444 202.544 21.9434C202.765 17.87 200.867 15.4861 197.277 14.0678ZM185.745 8.22898H187.953C190.11 8.22898 189.983 11.4623 187.953 11.4623H185.745V8.22898ZM188.686 22.4146H185.745V18.5365H188.686C190.236 18.5365 190.845 19.5052 190.845 20.4771C190.845 21.4458 190.196 22.4146 188.686 22.4146ZM253.404 -0.0340719H240.789L229.791 29.7259V30.9101H241.315L242.579 27.3653H251.618L252.88 30.9101H264.401V29.7259L253.404 -0.0340719ZM245.389 19.4603L247.096 11.7661L248.812 19.4603H245.389ZM204.114 30.9117H228.342V21.2304H215.859V18.2699H228.342V12.6H215.859V9.64103H228.342V-0.0449219H204.114V30.9117Z" fill="black"/>
</g>
<defs>
<clipPath id="clip0">
<rect width="284" height="31" fill="white"/>
</clipPath>
</defs>
</svg>
