<svg width="180" height="111" viewBox="0 0 180 111" fill="none" xmlns="http://www.w3.org/2000/svg">
<mask id="mask0" mask-type="alpha" maskUnits="userSpaceOnUse" x="0" y="0" width="180" height="111">
<path d="M0.135193 0.101318H179.014V110.521H0.135193V0.101318Z" fill="white"/>
</mask>
<g mask="url(#mask0)">
<path fill-rule="evenodd" clip-rule="evenodd" d="M0.135193 110.521H179.014V0.101318H0.135193V110.521Z" fill="#000002"/>
</g>
<path fill-rule="evenodd" clip-rule="evenodd" d="M176.189 3.04895H2.88696V107.647H176.189V3.04895Z" fill="black" stroke="black" stroke-width="2"/>
<path fill-rule="evenodd" clip-rule="evenodd" d="M8.06226 102.243H171.013V8.45471H8.06226V102.243Z" fill="#FFFFFE"/>
<path fill-rule="evenodd" clip-rule="evenodd" d="M64.8633 65.9504H65.5111V23.4277H64.8633V65.9504Z" fill="#000002"/>
<path fill-rule="evenodd" clip-rule="evenodd" d="M112.281 65.9864H112.929V23.4277H112.281V65.9864Z" fill="#000002"/>
<path fill-rule="evenodd" clip-rule="evenodd" d="M128.494 33.0042H125.388V31.8625H133.708L140.631 51.9828L147.429 31.8625H155.651V33.0042H152.542V58.4132H155.651V59.556H144.613V58.4132H147.915V34.4558H147.848L139.724 58.4132H137.914L129.629 34.9064H129.565V55.266C129.565 57.7582 129.889 58.4132 131.763 58.4132H133.155V59.556H125.388V58.4132H126.295C128.171 58.4132 128.494 57.7582 128.494 55.266V33.0042Z" fill="#000002"/>
<path fill-rule="evenodd" clip-rule="evenodd" d="M51.0132 33.0042V31.8625H39.9741V33.0042H43.1784V58.4132H30.234V33.0042H33.4383V31.8625H22.4003V33.0042H25.6046V58.4132H22.4003V59.556H48.2914C49.5534 59.556 50.5586 61.0425 50.5586 62.1818C50.5586 62.2189 50.5586 62.2189 50.5586 62.2515H51.0132V58.4132H47.7765V33.0042H51.0132Z" fill="#000002"/>
<path fill-rule="evenodd" clip-rule="evenodd" d="M92.5046 31.8625V33.039H95.5145L86.2591 52.6413L79.9153 37.084C79.2664 35.5614 78.9772 34.7659 78.9772 34.0412C78.9772 33.4164 79.4295 33.039 80.5933 33.039H81.9536V31.8625H74.1534V33.039H75.6433C77.0037 33.039 77.4225 34.0064 77.8759 35.1143L85.6426 53.9548L83.4736 58.5874H80.5631V59.729H91.6323V58.5874H88.6213L100.693 33.039H103.605V31.8625H92.5046Z" fill="#000002"/>
<path fill-rule="evenodd" clip-rule="evenodd" d="M27.5485 79.8655H25.3689V79.2074H30.4442V79.8655H28.2974V84.6928H27.5485V79.8655Z" fill="#000002"/>
<path fill-rule="evenodd" clip-rule="evenodd" d="M40.5276 80.6708C40.4594 79.9035 39.7457 79.685 38.9275 79.685C38.1774 79.685 37.5638 80.0852 37.5638 80.6708C37.5638 80.9642 37.7354 81.2933 38.382 81.4013L40.2548 81.7303C41.1095 81.8764 41.4822 82.3896 41.4822 83.082C41.4822 84.1796 40.5628 84.8364 39.0639 84.8364C37.599 84.8364 36.749 84.252 36.6808 83.0464H37.4626C37.4626 83.7769 38.1093 84.2152 39.0991 84.2152C40.1537 84.2152 40.7321 83.7769 40.7321 83.1569C40.7321 81.6579 36.8172 83.0108 36.8172 80.7432C36.8172 79.685 37.6672 79.0613 39.0639 79.0613C40.1208 79.0613 41.2459 79.3915 41.3141 80.6708H40.5276Z" fill="#000002"/>
<path fill-rule="evenodd" clip-rule="evenodd" d="M52.384 79.2074H53.134V82.4608C53.134 84.0323 52.1465 84.8364 50.751 84.8364C49.352 84.8364 48.3644 84.0323 48.3644 82.4608V79.2074H49.1145V82.5357C49.1145 83.5584 49.6929 84.2152 50.751 84.2152C51.8055 84.2152 52.384 83.5584 52.384 82.5357V79.2074Z" fill="#000002"/>
<path fill-rule="evenodd" clip-rule="evenodd" d="M61.0719 79.7574H61.0402V84.6928H60.3218V79.2074H61.4822L63.7312 84.0323L65.9779 79.2074H67.1723V84.6928H66.4223V79.7574L64.1392 84.6928H63.355L61.0719 79.7574Z" fill="#000002"/>
<path fill-rule="evenodd" clip-rule="evenodd" d="M83.3892 79.7574H83.3528V84.6928H82.6392V79.2074H83.7972L86.045 84.0323L88.2587 79.2074H89.4532V84.6928H88.7031V79.7574L86.4529 84.6928H85.6711L83.3892 79.7574Z" fill="#000002"/>
<path fill-rule="evenodd" clip-rule="evenodd" d="M99.265 79.0613C101.409 79.0613 102.161 80.634 102.161 81.9489C102.161 83.265 101.409 84.8364 99.265 84.8364C97.1183 84.8364 96.4011 83.265 96.4011 81.9489C96.4011 80.634 97.1183 79.0613 99.265 79.0613ZM99.265 84.2152C100.524 84.2152 101.378 83.3018 101.378 81.9489C101.378 80.5971 100.524 79.685 99.265 79.685C98.0364 79.685 97.1865 80.5971 97.1865 81.9489C97.1865 83.3018 98.0364 84.2152 99.265 84.2152Z" fill="#000002"/>
<path fill-rule="evenodd" clip-rule="evenodd" d="M112.689 80.6708C112.622 79.9035 111.871 79.685 111.052 79.685C110.336 79.685 109.726 80.0852 109.726 80.6708C109.726 80.9642 109.894 81.2933 110.508 81.4013L112.416 81.7303C113.234 81.8764 113.608 82.3896 113.608 83.082C113.608 84.1796 112.721 84.8364 111.19 84.8364C109.758 84.8364 108.906 84.252 108.803 83.0464H109.588C109.621 83.7769 110.268 84.2152 111.221 84.2152C112.312 84.2152 112.891 83.7769 112.891 83.1569C112.891 81.6579 108.975 83.0108 108.975 80.7432C108.975 79.685 109.789 79.0613 111.19 79.0613C112.244 79.0613 113.37 79.3915 113.472 80.6708H112.689Z" fill="#000002"/>
<path fill-rule="evenodd" clip-rule="evenodd" d="M125.564 83.1569C125.396 84.3613 124.338 84.8364 123.078 84.8364C121.273 84.8364 120.422 83.4479 120.422 81.9489C120.422 80.634 121.138 79.0613 123.282 79.0613C124.51 79.0613 125.429 79.7193 125.497 80.634H124.679C124.545 79.9416 123.932 79.685 123.251 79.685C122.055 79.685 121.205 80.4154 121.205 81.9489C121.205 83.4835 122.055 84.2152 123.251 84.2152C123.932 84.2152 124.611 83.8874 124.747 83.1569H125.564Z" fill="#000002"/>
<path fill-rule="evenodd" clip-rule="evenodd" d="M135.105 79.0613C137.252 79.0613 137.967 80.634 137.967 81.9489C137.967 83.265 137.252 84.8364 135.105 84.8364C132.96 84.8364 132.211 83.265 132.211 81.9489C132.211 80.634 132.96 79.0613 135.105 79.0613ZM135.105 84.2152C136.33 84.2152 137.184 83.3018 137.184 81.9489C137.184 80.5971 136.33 79.685 135.105 79.685C133.843 79.685 132.993 80.5971 132.993 81.9489C132.993 83.3018 133.843 84.2152 135.105 84.2152Z" fill="#000002"/>
<path fill-rule="evenodd" clip-rule="evenodd" d="M152.207 79.2074H152.992L151.187 84.6928H150.165L148.628 79.8655H148.596L147.029 84.6928H146.006L144.236 79.2074H145.019L146.518 84.0323H146.554L148.119 79.2074H149.107L150.675 84.0323L152.207 79.2074Z" fill="#000002"/>
<path fill-rule="evenodd" clip-rule="evenodd" d="M72.4698 84.91H77.8848V79.1373H72.4698V84.91Z" fill="black"/>
</svg>
